<?xml version="1.0" encoding="UTF-8"?>
<svg version="1.1" xmlns="http://www.w3.org/2000/svg" width="1536" height="1536">
<path d="M0 0 C23.76 0 47.52 0 72 0 C72 47.52 72 95.04 72 144 C143.28 144 214.56 144 288 144 C288 96.48 288 48.96 288 0 C311.76 0 335.52 0 360 0 C360 47.52 360 95.04 360 144 C482.76 144 605.52 144 732 144 C732 96.48 732 48.96 732 0 C755.76 0 779.52 0 804 0 C804 47.52 804 95.04 804 144 C875.28 144 946.56 144 1020 144 C1020 96.48 1020 48.96 1020 0 C1043.76 0 1067.52 0 1092 0 C1092 47.52 1092 95.04 1092 144 C1139.52 144 1187.04 144 1236 144 C1236 536.04 1236 928.08 1236 1332 C780.6 1332 325.2 1332 -144 1332 C-144 939.96 -144 547.92 -144 144 C-96.48 144 -48.96 144 0 144 C0 96.48 0 48.96 0 0 Z " fill="#000000" transform="translate(216,132)"/>
<path d="M0 0 C194.04 0 388.08 0 588 0 C588 130.68 588 261.36 588 396 C393.96 396 199.92 396 0 396 C0 265.32 0 134.64 0 0 Z " fill="#FEFEFE" transform="translate(468,684)"/>
<path d="M0 0 C47.52 0 95.04 0 144 0 C144 91.08 144 182.16 144 276 C100.44 276 56.88 276 12 276 C12 260.16 12 244.32 12 228 C39.72 228 67.44 228 96 228 C96 200.28 96 172.56 96 144 C64.32 144 32.64 144 0 144 C0 96.48 0 48.96 0 0 Z " fill="#000000" transform="translate(768,744)"/>
<path d="M0 0 C55.44 0 110.88 0 168 0 C168 55.44 168 110.88 168 168 C112.56 168 57.12 168 0 168 C0 112.56 0 57.12 0 0 Z " fill="#FEFEFE" transform="translate(1212,1224)"/>
<path d="M0 0 C55.44 0 110.88 0 168 0 C168 55.44 168 110.88 168 168 C112.56 168 57.12 168 0 168 C0 112.56 0 57.12 0 0 Z " fill="#FEFEFE" transform="translate(996,1224)"/>
<path d="M0 0 C55.44 0 110.88 0 168 0 C168 55.44 168 110.88 168 168 C112.56 168 57.12 168 0 168 C0 112.56 0 57.12 0 0 Z " fill="#FEFEFE" transform="translate(780,1224)"/>
<path d="M0 0 C55.44 0 110.88 0 168 0 C168 55.44 168 110.88 168 168 C112.56 168 57.12 168 0 168 C0 112.56 0 57.12 0 0 Z " fill="#FEFEFE" transform="translate(576,1224)"/>
<path d="M0 0 C55.44 0 110.88 0 168 0 C168 55.44 168 110.88 168 168 C112.56 168 57.12 168 0 168 C0 112.56 0 57.12 0 0 Z " fill="#FEFEFE" transform="translate(360,1224)"/>
<path d="M0 0 C55.44 0 110.88 0 168 0 C168 55.44 168 110.88 168 168 C112.56 168 57.12 168 0 168 C0 112.56 0 57.12 0 0 Z " fill="#FEFEFE" transform="translate(144,1224)"/>
<path d="M0 0 C55.44 0 110.88 0 168 0 C168 55.44 168 110.88 168 168 C112.56 168 57.12 168 0 168 C0 112.56 0 57.12 0 0 Z " fill="#FEFEFE" transform="translate(1212,1008)"/>
<path d="M0 0 C55.44 0 110.88 0 168 0 C168 55.44 168 110.88 168 168 C112.56 168 57.12 168 0 168 C0 112.56 0 57.12 0 0 Z " fill="#FEFEFE" transform="translate(144,1008)"/>
<path d="M0 0 C55.44 0 110.88 0 168 0 C168 55.44 168 110.88 168 168 C112.56 168 57.12 168 0 168 C0 112.56 0 57.12 0 0 Z " fill="#FEFEFE" transform="translate(1212,792)"/>
<path d="M0 0 C55.44 0 110.88 0 168 0 C168 55.44 168 110.88 168 168 C112.56 168 57.12 168 0 168 C0 112.56 0 57.12 0 0 Z " fill="#FEFEFE" transform="translate(144,792)"/>
<path d="M0 0 C55.44 0 110.88 0 168 0 C168 55.44 168 110.88 168 168 C112.56 168 57.12 168 0 168 C0 112.56 0 57.12 0 0 Z " fill="#FEFEFE" transform="translate(1212,576)"/>
<path d="M0 0 C55.44 0 110.88 0 168 0 C168 55.44 168 110.88 168 168 C112.56 168 57.12 168 0 168 C0 112.56 0 57.12 0 0 Z " fill="#FEFEFE" transform="translate(144,576)"/>
<path d="M0 0 C55.44 0 110.88 0 168 0 C168 55.44 168 110.88 168 168 C112.56 168 57.12 168 0 168 C0 112.56 0 57.12 0 0 Z " fill="#FEFEFE" transform="translate(1212,360)"/>
<path d="M0 0 C55.44 0 110.88 0 168 0 C168 55.44 168 110.88 168 168 C112.56 168 57.12 168 0 168 C0 112.56 0 57.12 0 0 Z " fill="#FEFEFE" transform="translate(996,360)"/>
<path d="M0 0 C55.44 0 110.88 0 168 0 C168 55.44 168 110.88 168 168 C112.56 168 57.12 168 0 168 C0 112.56 0 57.12 0 0 Z " fill="#FEFEFE" transform="translate(780,360)"/>
<path d="M0 0 C55.44 0 110.88 0 168 0 C168 55.44 168 110.88 168 168 C112.56 168 57.12 168 0 168 C0 112.56 0 57.12 0 0 Z " fill="#FEFEFE" transform="translate(576,360)"/>
<path d="M0 0 C55.44 0 110.88 0 168 0 C168 55.44 168 110.88 168 168 C112.56 168 57.12 168 0 168 C0 112.56 0 57.12 0 0 Z " fill="#FEFEFE" transform="translate(360,360)"/>
<path d="M0 0 C55.44 0 110.88 0 168 0 C168 55.44 168 110.88 168 168 C112.56 168 57.12 168 0 168 C0 112.56 0 57.12 0 0 Z " fill="#FEFEFE" transform="translate(144,360)"/>
<path d="M0 0 C55.44 0 110.88 0 168 0 C168 55.44 168 110.88 168 168 C140.28 168 112.56 168 84 168 C84 140.28 84 112.56 84 84 C56.28 84 28.56 84 0 84 C0 56.28 0 28.56 0 0 Z " fill="#FEFEFE" transform="translate(996,576)"/>
<path d="M0 0 C55.44 0 110.88 0 168 0 C168 27.72 168 55.44 168 84 C140.28 84 112.56 84 84 84 C84 111.72 84 139.44 84 168 C56.28 168 28.56 168 0 168 C0 112.56 0 57.12 0 0 Z " fill="#FEFEFE" transform="translate(360,576)"/>
<path d="M0 0 C27.72 0 55.44 0 84 0 C84 55.44 84 110.88 84 168 C28.56 168 -26.88 168 -84 168 C-84 144.24 -84 120.48 -84 96 C-56.28 96 -28.56 96 0 96 C0 64.32 0 32.64 0 0 Z " fill="#FEFEFE" transform="translate(1080,1008)"/>
<path d="M0 0 C27.72 0 55.44 0 84 0 C84 31.68 84 63.36 84 96 C111.72 96 139.44 96 168 96 C168 119.76 168 143.52 168 168 C112.56 168 57.12 168 0 168 C0 112.56 0 57.12 0 0 Z " fill="#FEFEFE" transform="translate(360,1008)"/>
<path d="M0 0 C15.84 0 31.68 0 48 0 C48 75.24 48 150.48 48 228 C63.84 228 79.68 228 96 228 C96 243.84 96 259.68 96 276 C48.48 276 0.96 276 -48 276 C-48 260.16 -48 244.32 -48 228 C-32.16 228 -16.32 228 0 228 C0 184.44 0 140.88 0 96 C-15.84 96 -31.68 96 -48 96 C-48 80.16 -48 64.32 -48 48 C-32.16 48 -16.32 48 0 48 C0 32.16 0 16.32 0 0 Z " fill="#000000" transform="translate(660,744)"/>
<path d="M0 0 C27.72 0 55.44 0 84 0 C84 55.44 84 110.88 84 168 C56.28 168 28.56 168 0 168 C0 112.56 0 57.12 0 0 Z " fill="#FEFEFE" transform="translate(1080,792)"/>
<path d="M0 0 C27.72 0 55.44 0 84 0 C84 55.44 84 110.88 84 168 C56.28 168 28.56 168 0 168 C0 112.56 0 57.12 0 0 Z " fill="#FEFEFE" transform="translate(360,792)"/>
<path d="M0 0 C55.44 0 110.88 0 168 0 C168 27.72 168 55.44 168 84 C112.56 84 57.12 84 0 84 C0 56.28 0 28.56 0 0 Z " fill="#FEFEFE" transform="translate(780,576)"/>
<path d="M0 0 C55.44 0 110.88 0 168 0 C168 27.72 168 55.44 168 84 C112.56 84 57.12 84 0 84 C0 56.28 0 28.56 0 0 Z " fill="#FEFEFE" transform="translate(576,576)"/>
<path d="M0 0 C23.76 0 47.52 0 72 0 C72 63.36 72 126.72 72 192 C48.24 192 24.48 192 0 192 C0 128.64 0 65.28 0 0 Z " fill="#000000" transform="translate(1092,60)"/>
<path d="M0 0 C23.76 0 47.52 0 72 0 C72 63.36 72 126.72 72 192 C48.24 192 24.48 192 0 192 C0 128.64 0 65.28 0 0 Z " fill="#000000" transform="translate(360,60)"/>
<path d="M0 0 C55.44 0 110.88 0 168 0 C168 23.76 168 47.52 168 72 C112.56 72 57.12 72 0 72 C0 48.24 0 24.48 0 0 Z " fill="#FEFEFE" transform="translate(780,1104)"/>
<path d="M0 0 C55.44 0 110.88 0 168 0 C168 23.76 168 47.52 168 72 C112.56 72 57.12 72 0 72 C0 48.24 0 24.48 0 0 Z " fill="#FEFEFE" transform="translate(576,1104)"/>
<path d="M0 0 C15.84 0 31.68 0 48 0 C48 15.84 48 31.68 48 48 C32.16 48 16.32 48 0 48 C0 32.16 0 16.32 0 0 Z " fill="#FFFFFF" transform="translate(816,792)"/>
</svg>
