<?xml version="1.0" encoding="UTF-8"?>
<svg version="1.1" xmlns="http://www.w3.org/2000/svg" width="128" height="128">
<path d="M0 0 C7.92 0 15.84 0 24 0 C24 1.32 24 2.64 24 4 C25.32 4 26.64 4 28 4 C28.495 8.95 28.495 8.95 29 14 C30.32 14.33 31.64 14.66 33 15 C33.99 15.33 34.98 15.66 36 16 C36.433125 15.505 36.86625 15.01 37.3125 14.5 C39 13 39 13 42 13 C42.33 12.01 42.66 11.02 43 10 C43.99 9.67 44.98 9.34 46 9 C55.405 18.405 55.405 18.405 65 28 C60 37 60 37 58 38 C58.66 40.31 59.32 42.62 60 45 C61.093125 44.979375 62.18625 44.95875 63.3125 44.9375 C67 45 67 45 70 46 C70 47.32 70 48.64 70 50 C71.32 50 72.64 50 74 50 C74 57.92 74 65.84 74 74 C68.06 74.495 68.06 74.495 62 75 C59.29155119 80.73290915 59.29155119 80.73290915 59 87 C59.66 87 60.32 87 61 87 C63.43160605 90.36683915 64 91.73350364 64 96 C63.67 96.66 63.34 97.32 63 98 C62.34 98 61.68 98 61 98 C61 98.66 61 99.32 61 100 C59.3203125 101.65625 59.3203125 101.65625 57.125 103.5 C55.00964496 105.28933258 52.95980876 107.04019124 51 109 C48.375 108.625 48.375 108.625 46 108 C46 107.34 46 106.68 46 106 C45.401875 105.87625 44.80375 105.7525 44.1875 105.625 C42 105 42 105 39 103 C38.0925 103.495 37.185 103.99 36.25 104.5 C33 106 33 106 29 106 C29.01160156 106.77085938 29.02320312 107.54171875 29.03515625 108.3359375 C29.04417969 109.33882813 29.05320312 110.34171875 29.0625 111.375 C29.07410156 112.37273437 29.08570312 113.37046875 29.09765625 114.3984375 C29 117 29 117 28 119 C20.41 119 12.82 119 5 119 C5 117.68 5 116.36 5 115 C3.35 115 1.7 115 0 115 C0 111.7 0 108.4 0 105 C-1.32 104.67 -2.64 104.34 -4 104 C-5.3479743 103.36345658 -6.68596724 102.70394612 -8 102 C-8.226875 102.598125 -8.45375 103.19625 -8.6875 103.8125 C-10.38626852 106.64378087 -12.00965555 107.64722513 -15 109 C-18.09530729 108.72688465 -19.33437355 107.7770843 -22 106 C-22 105.34 -22 104.68 -22 104 C-22.66 104 -23.32 104 -24 104 C-24 103.34 -24 102.68 -24 102 C-25.32 101.34 -26.64 100.68 -28 100 C-28 99.34 -28 98.68 -28 98 C-29.32 97.34 -30.64 96.68 -32 96 C-32 95.34 -32 94.68 -32 94 C-32.99 93.67 -33.98 93.34 -35 93 C-35.875 91.125 -35.875 91.125 -36 89 C-34.75 87.5625 -34.75 87.5625 -33 86 C-30.52411258 82.72296831 -30.52411258 82.72296831 -30.25 78.8125 C-30.78464966 77.52043 -31.37465287 76.25069425 -32 75 C-33.89533342 74.53476937 -33.89533342 74.53476937 -36.0625 74.375 C-38.0115625 74.189375 -38.0115625 74.189375 -40 74 C-40.495 71.525 -40.495 71.525 -41 69 C-42.32 69 -43.64 69 -45 69 C-45 61.41 -45 53.82 -45 46 C-41.98509443 44.99503148 -39.95818308 44.89664697 -36.8125 44.9375 C-35.91144531 44.94652344 -35.01039062 44.95554688 -34.08203125 44.96484375 C-33.39496094 44.97644531 -32.70789062 44.98804688 -32 45 C-31.855625 43.9275 -31.71125 42.855 -31.5625 41.75 C-31 38 -31 38 -30.25 35.875 C-29.8533547 32.90016023 -31.30135196 31.36597405 -33 29 C-34.58245275 27.24850835 -34.58245275 27.24850835 -36 26 C-34.67879172 23.06769807 -33.25361803 21.01335101 -30.9609375 18.765625 C-30.38085938 18.19199219 -29.80078125 17.61835938 -29.203125 17.02734375 C-28.59984375 16.44082031 -27.9965625 15.85429687 -27.375 15.25 C-26.76398437 14.64800781 -26.15296875 14.04601562 -25.5234375 13.42578125 C-24.02011376 11.94594695 -22.51065144 10.47235324 -21 9 C-19.68 9.66 -18.36 10.32 -17 11 C-17 11.66 -17 12.32 -17 13 C-15.68 13.33 -14.36 13.66 -13 14 C-13 14.66 -13 15.32 -13 16 C-10.42144939 15.57024157 -8.27187163 15.14005508 -5.9375 13.9375 C-4 13 -4 13 0 13 C0 8.71 0 4.42 0 0 Z M11 11 C10.86658203 12.12148438 10.86658203 12.12148438 10.73046875 13.265625 C10.14201256 16.50001732 9.50796114 19.06855733 8 22 C4.49755516 24.12554949 0.95349733 25.03416189 -3 26 C-3.33 26.33 -3.66 26.66 -4 27 C-7.83300079 27.43556827 -9.51770335 27.32883862 -12.75 25.125 C-14.18528848 23.76944977 -15.6040112 22.3959888 -17 21 C-17 21.99 -17 22.98 -17 24 C-18.98 24.99 -18.98 24.99 -21 26 C-21 26.66 -21 27.32 -21 28 C-21.66 28 -22.32 28 -23 28 C-22.55933233 30.97450674 -21.90403803 32.11007402 -19.875 34.4375 C-18 37 -18 37 -18.0625 39.375 C-19.23148175 42.6481489 -20.63106575 45.80582007 -22 49 C-22.495 51.475 -22.495 51.475 -23 54 C-26.63 54.66 -30.26 55.32 -34 56 C-34 58.31 -34 60.62 -34 63 C-32.2984375 63.433125 -32.2984375 63.433125 -30.5625 63.875 C-29.386875 64.24625 -28.21125 64.6175 -27 65 C-26.67 65.66 -26.34 66.32 -26 67 C-25.34 67 -24.68 67 -24 67 C-23.86464844 67.57621094 -23.72929687 68.15242188 -23.58984375 68.74609375 C-23.02324401 70.91118016 -22.34223295 72.96570519 -21.5625 75.0625 C-21.31628906 75.73410156 -21.07007813 76.40570313 -20.81640625 77.09765625 C-19.95439371 79.26514492 -19.95439371 79.26514492 -18 82 C-18.23375861 85.03886193 -18.69208275 86.62102493 -20.625 89 C-22.3070033 90.97819321 -22.3070033 90.97819321 -21.6875 93.75 C-21.460625 94.4925 -21.23375 95.235 -21 96 C-18.26291936 95.01160977 -16.23925722 94.2161033 -14.0625 92.25 C-12 91 -12 91 -9.25 91.625 C-8.1775 92.07875 -7.105 92.5325 -6 93 C-4.60730262 93.54967942 -3.21133494 94.09113272 -1.8125 94.625 C-1.15894531 94.88539062 -0.50539062 95.14578125 0.16796875 95.4140625 C2.15566059 96.15231417 2.15566059 96.15231417 5 96 C5.33 97.32 5.66 98.64 6 100 C6.66 100 7.32 100 8 100 C8.66 102.31 9.32 104.62 10 107 C12.31 107 14.62 107 17 107 C17.309375 105.906875 17.61875 104.81375 17.9375 103.6875 C18.58337897 101.44592006 19.2623117 99.2130649 20 97 C25.48181034 94.24961073 31.84082361 92.12831617 38 92 C39.625 93.375 39.625 93.375 41 95 C43.34872531 96.16977494 43.34872531 96.16977494 46 96 C49 94 49 94 51 91 C50.95020416 88.239835 50.95020416 88.239835 50 86 C49.34 86 48.68 86 48 86 C46.8657918 80.01962947 46.89684934 77.40178078 50 72 C50.77927531 69.68564623 51.38490933 67.36573336 52 65 C55.3 64.34 58.6 63.68 62 63 C62 60.36 62 57.72 62 55 C61.45730469 54.82984375 60.91460937 54.6596875 60.35546875 54.484375 C52.99566161 51.99132321 52.99566161 51.99132321 51 48 C50.30643577 45.67451993 49.63850788 43.34119555 49 41 C48.01 39.515 48.01 39.515 47 38 C46.625 35.125 46.625 35.125 47 32 C48.31866272 30.321702 49.65080468 28.65385233 51 27 C50.87436418 24.73575649 50.87436418 24.73575649 50 23 C45.97909585 22.56287556 45.97909585 22.56287556 43.625 25.0625 C41 27 41 27 37.875 26.875 C35 26 35 26 32 24 C29.73703813 23.2169824 27.45482922 22.54932519 25.15625 21.87890625 C22.76510018 20.90425279 21.59689153 20.01661831 20 18 C19.25613932 15.69011685 18.57809297 13.35684056 18 11 C15.69 11 13.38 11 11 11 Z " fill="#1A1A1A" transform="translate(50,8)"/>
<path d="M0 0 C7.59 0 15.18 0 23 0 C23 1.98 23 3.96 23 6 C24.65 6 26.3 6 28 6 C28 7.65 28 9.3 28 11 C29.65 11 31.3 11 33 11 C33 12.65 33 14.3 33 16 C34.65 16 36.3 16 38 16 C38 17.32 38 18.64 38 20 C39.32 20 40.64 20 42 20 C42 27.59 42 35.18 42 43 C40.02 43.495 40.02 43.495 38 44 C37.67 45.32 37.34 46.64 37 48 C35.35 48 33.7 48 32 48 C32 49.65 32 51.3 32 53 C30.68 53 29.36 53 28 53 C28 54.65 28 56.3 28 58 C25.02181366 58.88099735 22.54707135 59.06705164 19.453125 58.87890625 C18.60878906 58.83056641 17.76445313 58.78222656 16.89453125 58.73242188 C16.02183594 58.67634766 15.14914063 58.62027344 14.25 58.5625 C13.36183594 58.51029297 12.47367188 58.45808594 11.55859375 58.40429688 C9.37200804 58.27498267 7.18592106 58.14003358 5 58 C4.67 56.68 4.34 55.36 4 54 C2.68 54 1.36 54 0 54 C-0.3403125 52.7934375 -0.3403125 52.7934375 -0.6875 51.5625 C-1.120625 50.716875 -1.55375 49.87125 -2 49 C-4.54775306 48.10613836 -4.54775306 48.10613836 -7 48 C-7.495 46.515 -7.495 46.515 -8 45 C-8.66 44.67 -9.32 44.34 -10 44 C-10 42.35 -10 40.7 -10 39 C-11.65 39 -13.3 39 -15 39 C-15 31.41 -15 23.82 -15 16 C-13.35 16 -11.7 16 -10 16 C-10 14.35 -10 12.7 -10 11 C-8.35 11 -6.7 11 -5 11 C-5 9.35 -5 7.7 -5 6 C-3.35 6 -1.7 6 0 6 C0 4.02 0 2.04 0 0 Z M7 12 C7 13.65 7 15.3 7 17 C5.02 17 3.04 17 1 17 C1 18.98 1 20.96 1 23 C-0.65 23 -2.3 23 -4 23 C-4.0272616 25.04159095 -4.04651345 27.08328963 -4.0625 29.125 C-4.07410156 30.26195313 -4.08570313 31.39890625 -4.09765625 32.5703125 C-4.005327 35.8129156 -3.61389906 38.81932612 -3 42 C-1.35 42 0.3 42 2 42 C2 43.65 2 45.3 2 47 C8.27 47.33 14.54 47.66 21 48 C21 46.02 21 44.04 21 42 C22.65 42 24.3 42 26 42 C26 40.35 26 38.7 26 37 C27.65 37 29.3 37 31 37 C31 30.73 31 24.46 31 18 C29.35 18 27.7 18 26 18 C26 16.02 26 14.04 26 12 C19.73 12 13.46 12 7 12 Z " fill="#727272" transform="translate(51,38)"/>
<path d="M0 0 C1.65 0 3.3 0 5 0 C5 7.92 5 15.84 5 24 C1.04 24.33 -2.92 24.66 -7 25 C-9.70844881 30.73290915 -9.70844881 30.73290915 -10 37 C-9.34 37 -8.68 37 -8 37 C-5.56839395 40.36683915 -5 41.73350364 -5 46 C-5.495 46.99 -5.495 46.99 -6 48 C-6.66 48 -7.32 48 -8 48 C-8 48.66 -8 49.32 -8 50 C-9.6796875 51.65625 -9.6796875 51.65625 -11.875 53.5 C-13.99035504 55.28933258 -16.04019124 57.04019124 -18 59 C-20.625 58.625 -20.625 58.625 -23 58 C-23 57.34 -23 56.68 -23 56 C-23.8971875 55.814375 -23.8971875 55.814375 -24.8125 55.625 C-27 55 -27 55 -30 53 C-30.9075 53.495 -31.815 53.99 -32.75 54.5 C-36 56 -36 56 -40 56 C-39.98839844 56.77085938 -39.97679688 57.54171875 -39.96484375 58.3359375 C-39.95582031 59.33882812 -39.94679688 60.34171875 -39.9375 61.375 C-39.92589844 62.37273437 -39.91429688 63.37046875 -39.90234375 64.3984375 C-40 67 -40 67 -41 69 C-48.59 69 -56.18 69 -64 69 C-64 67.35 -64 65.7 -64 64 C-58.06 64 -52.12 64 -46 64 C-45.896875 62.411875 -45.79375 60.82375 -45.6875 59.1875 C-45.38183807 54.48030635 -45.38183807 54.48030635 -43.63671875 52.28515625 C-40.49211172 49.81600181 -37.56755047 48 -33.5 48 C-30.01004598 49.39598161 -27.78172597 51.47703923 -25 54 C-20.92623969 52.38989473 -18.23492931 49.46177729 -15.25 46.375 C-14.74339844 45.859375 -14.23679688 45.34375 -13.71484375 44.8125 C-12.47196098 43.54616661 -11.23534724 42.2736856 -10 41 C-11.24019922 38.34404825 -12.36335676 36.57772052 -14.3125 34.3125 C-16 31 -16 31 -15.625 28.68359375 C-14.61847284 25.66885134 -13.42037224 22.84074447 -12 20 C-8.03140122 18.41256049 -4.42962386 19 0 19 C0 12.73 0 6.46 0 0 Z " fill="#B7B7B7" transform="translate(119,58)"/>
<path d="M0 0 C6.27 0 12.54 0 19 0 C19 1.65 19 3.3 19 5 C14.38 5 9.76 5 5 5 C5 6.65 5 8.3 5 10 C3.02 10 1.04 10 -1 10 C-1 11.98 -1 13.96 -1 16 C-2.65 16 -4.3 16 -6 16 C-5.67 22.27 -5.34 28.54 -5 35 C-3.35 35 -1.7 35 0 35 C-0.33 35.66 -0.66 36.32 -1 37 C-2.65 36.67 -4.3 36.34 -6 36 C-6 37.65 -6 39.3 -6 41 C-6.99 41 -7.98 41 -9 41 C-9.495 39.515 -9.495 39.515 -10 38 C-10.66 37.67 -11.32 37.34 -12 37 C-12 35.35 -12 33.7 -12 32 C-13.65 32 -15.3 32 -17 32 C-17 24.41 -17 16.82 -17 9 C-15.35 9 -13.7 9 -12 9 C-12 7.35 -12 5.7 -12 4 C-8.04 4 -4.08 4 0 4 C0 2.68 0 1.36 0 0 Z " fill="#B6B6B6" transform="translate(53,45)"/>
<path d="M0 0 C0.495 1.98 0.495 1.98 1 4 C2.32 4 3.64 4 5 4 C5 11.59 5 19.18 5 27 C3.68 27.33 2.36 27.66 1 28 C0.67 29.32 0.34 30.64 0 32 C-1.65 32 -3.3 32 -5 32 C-5 33.65 -5 35.3 -5 37 C-6.32 37 -7.64 37 -9 37 C-9 38.65 -9 40.3 -9 42 C-11.97818634 42.88099735 -14.45292865 43.06705164 -17.546875 42.87890625 C-18.39121094 42.83056641 -19.23554687 42.78222656 -20.10546875 42.73242188 C-20.97816406 42.67634766 -21.85085937 42.62027344 -22.75 42.5625 C-23.63816406 42.51029297 -24.52632812 42.45808594 -25.44140625 42.40429688 C-27.62799196 42.27498267 -29.81407894 42.14003358 -32 42 C-32.33 40.68 -32.66 39.36 -33 38 C-27.06 38 -21.12 38 -15 38 C-15 36.02 -15 34.04 -15 32 C-13.35 32 -11.7 32 -10 32 C-10 30.35 -10 28.7 -10 27 C-8.35 27 -6.7 27 -5 27 C-5 25.35 -5 23.7 -5 22 C-3.35 22 -1.7 22 0 22 C0 14.74 0 7.48 0 0 Z " fill="#B5B5B5" transform="translate(88,54)"/>
<path d="M0 0 C4.29 0 8.58 0 13 0 C13.061875 1.69125 13.12375 3.3825 13.1875 5.125 C13.89798062 9.25967667 14.44549559 10.59631479 17.88671875 13.1015625 C23.81097771 16.11170612 23.81097771 16.11170612 30.2578125 16.7734375 C32.25774814 15.98386401 32.25774814 15.98386401 34.5 13.875 C37 12 37 12 39.3125 12.25 C39.869375 12.4975 40.42625 12.745 41 13 C41 17 41 17 38.375 19.8125 C35.81028213 21.78909108 35.2150014 22.00421571 31.8125 21.9375 C29 21 29 21 26 19 C24.5317308 18.50787294 23.05108728 18.05174509 21.5625 17.625 C17.7889655 16.38556265 15.27726572 15.41589859 13 12 C12.25 8.25 12.25 8.25 12 5 C9.69 5 7.38 5 5 5 C4.99484375 5.73605469 4.9896875 6.47210938 4.984375 7.23046875 C4.723617 10.52036555 4.34901789 12.9742848 3 16 C-0.77611887 18.46592812 -4.70823482 19.6979328 -9 21 C-9.33 21.33 -9.66 21.66 -10 22 C-13.00051129 22.41867599 -15.12524693 22.564739 -17.73046875 20.8828125 C-19.20282466 19.64477451 -20.60698559 18.32668039 -22 17 C-21.67 16.34 -21.34 15.68 -21 15 C-20.34 15.4125 -19.68 15.825 -19 16.25 C-15.00044803 17.24988799 -13.53512594 15.9837118 -10.0703125 14.02734375 C-7.04816971 12.52767667 -4.34175969 12.27847997 -1 12 C-0.67 8.04 -0.34 4.08 0 0 Z " fill="#B7B7B7" transform="translate(56,14)"/>
<path d="M0 0 C4.69201155 4.2107796 4.69201155 4.2107796 6 7.5625 C6 10.74366165 4.94448475 11.49994818 3 14 C1.85212781 16.96490755 0.93916181 19.9589046 0 23 C-3.63 23.66 -7.26 24.32 -11 25 C-11 27.31 -11 29.62 -11 32 C-8.69 32.33 -6.38 32.66 -4 33 C-3.67 33.99 -3.34 34.98 -3 36 C-2.34 36 -1.68 36 -1 36 C1.06118443 39.93498846 2.59791305 43.79373914 4 48 C4.66 48.99 5.32 49.98 6 51 C5.69946133 54.90700276 4.41763238 57.00213585 2 60 C1.30419733 61.31836295 0.62775567 62.64791086 0 64 C-2.0625 62.25 -2.0625 62.25 -4 60 C-3.91083265 57.23581223 -2.93866085 55.91035048 -1.375 53.625 C0.45386123 50.13353766 0.08810201 48.77208698 -1 45 C-1.99696528 42.6201474 -3.0475975 40.28118388 -4.16015625 37.953125 C-5 36 -5 36 -5 34 C-6.0725 34.020625 -7.145 34.04125 -8.25 34.0625 C-12 34 -12 34 -16 33 C-16 28.71 -16 24.42 -16 20 C-12.37 19.67 -8.74 19.34 -5 19 C-4.67 17.35 -4.34 15.7 -4 14 C-3.34 14 -2.68 14 -2 14 C-1.855625 13.13375 -1.71125 12.2675 -1.5625 11.375 C-1.19425503 9.16553021 -0.81950372 6.95713259 -0.4375 4.75 C0.05237168 2.13490384 0.05237168 2.13490384 0 0 Z " fill="#AFAFAF" transform="translate(27,39)"/>
<path d="M0 0 C2.14326469 1.55272145 4.03275566 3.21575513 6 5 C7.65 4.34 9.3 3.68 11 3 C10.34 4.32 9.68 5.64 9 7 C5.62537285 6.45276317 3.91765 5.9451 1 4 C0.0925 4.495 -0.815 4.99 -1.75 5.5 C-5 7 -5 7 -9 7 C-8.98839844 7.77085938 -8.97679688 8.54171875 -8.96484375 9.3359375 C-8.95582031 10.33882812 -8.94679688 11.34171875 -8.9375 12.375 C-8.92589844 13.37273437 -8.91429688 14.37046875 -8.90234375 15.3984375 C-9 18 -9 18 -10 20 C-17.59 20 -25.18 20 -33 20 C-33 18.35 -33 16.7 -33 15 C-27.06 15 -21.12 15 -15 15 C-14.896875 13.411875 -14.79375 11.82375 -14.6875 10.1875 C-14.38183807 5.48030635 -14.38183807 5.48030635 -12.63671875 3.28515625 C-8.55376586 0.07920995 -5.03780009 -2.01512003 0 0 Z " fill="#B2B2B2" transform="translate(88,107)"/>
<path d="M0 0 C1.66611905 -0.042721 3.33382885 -0.04063832 5 0 C6 1 6 1 6.0625 3.5625 C6.041875 4.366875 6.02125 5.17125 6 6 C4.35 6 2.7 6 1 6 C1 7.65 1 9.3 1 11 C-0.65 11 -2.3 11 -4 11 C-4 12.98 -4 14.96 -4 17 C-11.26 17 -18.52 17 -26 17 C-26.66 15.35 -27.32 13.7 -28 12 C-28.66 11.67 -29.32 11.34 -30 11 C-30 9.35 -30 7.7 -30 6 C-28.35 6 -26.7 6 -25 6 C-24.67 7.32 -24.34 8.64 -24 10 C-23.29875 9.98839844 -22.5975 9.97679688 -21.875 9.96484375 C-16.13886898 9.91028816 -10.67221747 10.14381623 -5 11 C-5 9.02 -5 7.04 -5 5 C-3.35 5 -1.7 5 0 5 C0 3.35 0 1.7 0 0 Z " fill="#080808" transform="translate(77,75)"/>
<path d="M0 0 C1.65 0 3.3 0 5 0 C6 1 6 1 6.11352539 3.04125977 C6.10828857 3.91580811 6.10305176 4.79035645 6.09765625 5.69140625 C6.09443359 6.63564453 6.09121094 7.57988281 6.08789062 8.55273438 C6.07951172 9.54595703 6.07113281 10.53917969 6.0625 11.5625 C6.05798828 12.55958984 6.05347656 13.55667969 6.04882812 14.58398438 C6.03700007 17.05604849 6.02051849 19.52799518 6 22 C7.32 22 8.64 22 10 22 C10 23.65 10 25.3 10 27 C8.35 27.33 6.7 27.66 5 28 C5 26.35 5 24.7 5 23 C3.35 23 1.7 23 0 23 C0 15.41 0 7.82 0 0 Z " fill="#060606" transform="translate(36,54)"/>
<path d="M0 0 C0.66 1.32 1.32 2.64 2 4 C2.66 4 3.32 4 4 4 C6.43160605 7.36683915 7 8.73350364 7 13 C6.67 13.66 6.34 14.32 6 15 C5.34 15 4.68 15 4 15 C4 15.66 4 16.32 4 17 C2.3203125 18.65625 2.3203125 18.65625 0.125 20.5 C-1.99035504 22.28933258 -4.04019124 24.04019124 -6 26 C-8.625 25.625 -8.625 25.625 -11 25 C-10.35330586 23.65686601 -9.68096422 22.32608822 -9 21 C-8.62875 20.2575 -8.2575 19.515 -7.875 18.75 C-5.0930838 14.66985624 -1.55739163 11.40529413 2 8 C1.67 7.4225 1.34 6.845 1 6.25 C0 4 0 4 0 0 Z " fill="#BDBDBD" transform="translate(107,91)"/>
<path d="M0 0 C4.29 0 8.58 0 13 0 C13.061875 1.69125 13.12375 3.3825 13.1875 5.125 C13.89798062 9.25967667 14.44549559 10.59631479 17.88671875 13.1015625 C23.81097771 16.11170612 23.81097771 16.11170612 30.2578125 16.7734375 C32.25774814 15.98386401 32.25774814 15.98386401 34.5 13.875 C37 12 37 12 39.3125 12.25 C39.869375 12.4975 40.42625 12.745 41 13 C41 17 41 17 38.375 19.8125 C35.81028213 21.78909108 35.2150014 22.00421571 31.8125 21.9375 C29 21 29 21 26 19 C24.5317308 18.50787294 23.05108728 18.05174509 21.5625 17.625 C17.79590341 16.41233963 15.43660105 15.2488014 13 12 C11.71682108 8.15046324 11.93356363 5.05261865 12 1 C8.37 1 4.74 1 1 1 C0.67 1.99 0.34 2.98 0 4 C0 2.68 0 1.36 0 0 Z " fill="#A6A6A6" transform="translate(56,14)"/>
<path d="M0 0 C4.69201155 4.2107796 4.69201155 4.2107796 6 7.5625 C6 10.74366165 4.94448475 11.49994818 3 14 C1.85212781 16.96490755 0.93916181 19.9589046 0 23 C-2.97 23.33 -5.94 23.66 -9 24 C-9.33 23.34 -9.66 22.68 -10 22 C-8.68 22 -7.36 22 -6 22 C-5.34 19.36 -4.68 16.72 -4 14 C-3.34 14 -2.68 14 -2 14 C-1.855625 13.13375 -1.71125 12.2675 -1.5625 11.375 C-1.19425503 9.16553021 -0.81950372 6.95713259 -0.4375 4.75 C0.05237168 2.13490384 0.05237168 2.13490384 0 0 Z " fill="#B6B6B6" transform="translate(27,39)"/>
<path d="M0 0 C1.12894876 0.93274109 2.25300876 1.87140122 3.375 2.8125 C4.00148438 3.33457031 4.62796875 3.85664063 5.2734375 4.39453125 C7 6 7 6 9 9 C8.21448343 10.31618998 7.4213763 11.62785228 6.625 12.9375 C6.18414062 13.66839844 5.74328125 14.39929688 5.2890625 15.15234375 C4 17 4 17 2 18 C2.66 20.31 3.32 22.62 4 25 C2.68 25 1.36 25 0 25 C-0.5345256 23.75579353 -1.05208611 22.50429064 -1.5625 21.25 C-1.85253906 20.55390625 -2.14257812 19.8578125 -2.44140625 19.140625 C-3.0964071 16.63055181 -2.9066079 15.41108695 -2 13 C-1.29875 12.01 -0.5975 11.02 0.125 10 C2.24429185 7.27717004 2.24429185 7.27717004 1.8125 4.8125 C1.544375 4.214375 1.27625 3.61625 1 3 C0.67 2.01 0.34 1.02 0 0 Z " fill="#AEAEAE" transform="translate(106,28)"/>
<path d="M0 0 C1.32 0 2.64 0 4 0 C4 7.26 4 14.52 4 22 C2.35 22 0.7 22 -1 22 C-1.02887814 18.52085059 -1.04675687 15.04173169 -1.0625 11.5625 C-1.07087891 10.56927734 -1.07925781 9.57605469 -1.08789062 8.55273438 C-1.09111328 7.60849609 -1.09433594 6.66425781 -1.09765625 5.69140625 C-1.10289307 4.81685791 -1.10812988 3.94230957 -1.11352539 3.04125977 C-1 1 -1 1 0 0 Z " fill="#0A0A0A" transform="translate(84,54)"/>
<path d="M0 0 C3.28486915 1.17316755 6.44459477 2.5031996 9.625 3.9375 C9.625 4.9275 9.625 5.9175 9.625 6.9375 C6.69620629 6.30990135 4.26404371 5.35127341 1.625 3.9375 C1.2846875 4.8346875 1.2846875 4.8346875 0.9375 5.75 C-0.76126852 8.58128087 -2.38465555 9.58472513 -5.375 10.9375 C-8.09663054 10.77740409 -9.09223545 10.18996835 -11.125 8.375 C-11.5375 7.900625 -11.95 7.42625 -12.375 6.9375 C-11.2921875 6.31875 -11.2921875 6.31875 -10.1875 5.6875 C-7.30940663 4.01067532 -7.30940663 4.01067532 -4.875 1.6875 C-2.375 -0.0625 -2.375 -0.0625 0 0 Z " fill="#B7B7B6" transform="translate(40.375,106.0625)"/>
<path d="M0 0 C1.65 0 3.3 0 5 0 C5.33 1.32 5.66 2.64 6 4 C9.63 4 13.26 4 17 4 C17 4.33 17 4.66 17 5 C13.37 5 9.74 5 6 5 C6 6.32 6 7.64 6 9 C12.6 9.33 19.2 9.66 26 10 C26 10.33 26 10.66 26 11 C18.74 11 11.48 11 4 11 C3.34 9.35 2.68 7.7 2 6 C1.34 5.67 0.68 5.34 0 5 C0 3.35 0 1.7 0 0 Z " fill="#7F7F7F" transform="translate(47,81)"/>
<path d="M0 0 C6.27 0 12.54 0 19 0 C19 1.32 19 2.64 19 4 C12.73 4 6.46 4 0 4 C0 2.68 0 1.36 0 0 Z " fill="#020302" transform="translate(53,40)"/>
<path d="M0 0 C3.63 0 7.26 0 11 0 C11 1.32 11 2.64 11 4 C8.69 4 6.38 4 4 4 C3.67 6.64 3.34 9.28 3 12 C2.67 11.01 2.34 10.02 2 9 C1.01 9.33 0.02 9.66 -1 10 C-1.125 3.375 -1.125 3.375 0 0 Z " fill="#C2C2C2" transform="translate(57,15)"/>
<path d="M0 0 C1.66611905 -0.042721 3.33382885 -0.04063832 5 0 C6 1 6 1 6.0625 3.5625 C6.041875 4.366875 6.02125 5.17125 6 6 C4.35 6 2.7 6 1 6 C1 7.65 1 9.3 1 11 C-0.98 11 -2.96 11 -5 11 C-5 9.02 -5 7.04 -5 5 C-3.35 5 -1.7 5 0 5 C0 3.35 0 1.7 0 0 Z " fill="#323232" transform="translate(77,75)"/>
<path d="M0 0 C0.99 0.33 1.98 0.66 3 1 C2.46148009 4.87734333 1.43874548 6.97595561 -1 10 C-1.69580267 11.31836295 -2.37224433 12.64791086 -3 14 C-5.0625 12.25 -5.0625 12.25 -7 10 C-7.10543921 6.73138437 -5.74120684 5.72179735 -3.5 3.3125 C-2.675 2.549375 -1.85 1.78625 -1 1 C-0.67 0.67 -0.34 0.34 0 0 Z " fill="#BEBEBE" transform="translate(30,89)"/>
<path d="M0 0 C2.475 0.99 2.475 0.99 5 2 C4.45912682 5.78611227 2.88277668 7.55400767 0 10 C-0.66 10 -1.32 10 -2 10 C-2.33 10.99 -2.66 11.98 -3 13 C-6 9.64 -6 9.64 -6 7.0625 C-4.56664257 4.1062003 -2.39375574 2.20962069 0 0 Z " fill="#BDBCBC" transform="translate(29,26)"/>
<path d="M0 0 C1.98 0 3.96 0 6 0 C5.67 8.91 5.34 17.82 5 27 C4.67 27 4.34 27 4 27 C4 20.4 4 13.8 4 7 C2.35 7 0.7 7 -1 7 C-1.04254356 5.00045254 -1.04080783 2.99958364 -1 1 C-0.67 0.67 -0.34 0.34 0 0 Z " fill="#717171" transform="translate(78,49)"/>
<path d="M0 0 C1.45823212 -0.0270043 2.91660675 -0.04639787 4.375 -0.0625 C5.18710938 -0.07410156 5.99921875 -0.08570313 6.8359375 -0.09765625 C9 0 9 0 11 1 C11 4.96 11 8.92 11 13 C8.47524538 14.26237731 6.68799534 14.09856404 3.875 14.0625 C2.96492188 14.05347656 2.05484375 14.04445313 1.1171875 14.03515625 C0.41851562 14.02355469 -0.28015625 14.01195313 -1 14 C-1 13.67 -1 13.34 -1 13 C2.3 12.67 5.6 12.34 9 12 C9 9.36 9 6.72 9 4 C8.071875 3.896875 7.14375 3.79375 6.1875 3.6875 C2.85034764 2.96772204 2.16813468 2.42857128 0 0 Z " fill="#9C9C9C" transform="translate(103,59)"/>
<path d="M0 0 C2.64 0 5.28 0 8 0 C8.33 0.99 8.66 1.98 9 3 C9.66 3 10.32 3 11 3 C13.55110098 7.63836542 15.14713418 11.79751852 16 17 C14.625 19 14.625 19 13 20 C12.34 19.67 11.68 19.34 11 19 C11.21527344 18.29230469 11.43054687 17.58460937 11.65234375 16.85546875 C12.09203528 13.24406978 11.18503696 11.53558832 9.5625 8.3125 C7 3.15258856 7 3.15258856 7 1 C4.69 1 2.38 1 0 1 C0 0.67 0 0.34 0 0 Z " fill="#9A9A99" transform="translate(15,72)"/>
<path d="M0 0 C0.33 0 0.66 0 1 0 C1 7.26 1 14.52 1 22 C3.97 22 6.94 22 10 22 C10 23.65 10 25.3 10 27 C8.35 27.33 6.7 27.66 5 28 C5 26.35 5 24.7 5 23 C3.35 23 1.7 23 0 23 C0 15.41 0 7.82 0 0 Z " fill="#6E6E6E" transform="translate(36,54)"/>
<path d="M0 0 C0.33 0.66 0.66 1.32 1 2 C1.66 2 2.32 2 3 2 C3.66 4.31 4.32 6.62 5 9 C9.455 8.505 9.455 8.505 14 8 C14 8.99 14 9.98 14 11 C9.71 11 5.42 11 1 11 C0.67 7.37 0.34 3.74 0 0 Z " fill="#A9A9A9" transform="translate(55,106)"/>
<path d="M0 0 C0.66 0.66 1.32 1.32 2 2 C1.07316406 2.89203125 0.14632813 3.7840625 -0.80859375 4.703125 C-2.01862278 5.88501382 -3.22823665 7.06732778 -4.4375 8.25 C-5.04916016 8.83652344 -5.66082031 9.42304688 -6.29101562 10.02734375 C-6.87431641 10.60097656 -7.45761719 11.17460937 -8.05859375 11.765625 C-8.59798584 12.28930664 -9.13737793 12.81298828 -9.69311523 13.35253906 C-11.17120758 15.21582454 -11.59165211 16.67793522 -12 19 C-12.66 19 -13.32 19 -14 19 C-14.69897461 17.22949219 -14.69897461 17.22949219 -15 15 C-13.73657227 13.16894531 -13.73657227 13.16894531 -11.81640625 11.328125 C-11.13642578 10.66425781 -10.45644531 10.00039063 -9.75585938 9.31640625 C-9.03205078 8.63449219 -8.30824219 7.95257812 -7.5625 7.25 C-6.84255859 6.55261719 -6.12261719 5.85523438 -5.38085938 5.13671875 C-3.59788539 3.41278364 -1.80432174 1.70153391 0 0 Z " fill="#424242" transform="translate(29,17)"/>
<path d="M0 0 C1.65 0 3.3 0 5 0 C5.49230769 6.4 5.49230769 6.4 3 9.4375 C2.01 10.2109375 2.01 10.2109375 1 11 C-0.625 9.4375 -0.625 9.4375 -2 7 C-1.1875 3.25 -1.1875 3.25 0 0 Z " fill="#B0B0B0" transform="translate(105,82)"/>
<path d="M0 0 C1.32 0 2.64 0 4 0 C4.33 3.3 4.66 6.6 5 10 C6.32 10.33 7.64 10.66 9 11 C7 12 7 12 3.9375 11.125 C1 9 1 9 0.38671875 6.79296875 C0.14659471 4.51716625 0.00959243 2.28779379 0 0 Z " fill="#B8B8B8" transform="translate(74,12)"/>
<path d="M0 0 C1.45947705 0.06006078 2.91779272 0.1488689 4.375 0.25 C5.59316406 0.31960937 5.59316406 0.31960937 6.8359375 0.390625 C9 1 9 1 10.3515625 2.859375 C11 5 11 5 10 8 C9.67 7.34 9.34 6.68 9 6 C7.10466658 5.53476937 7.10466658 5.53476937 4.9375 5.375 C3.638125 5.25125 2.33875 5.1275 1 5 C0.67 3.35 0.34 1.7 0 0 Z " fill="#CACACA" transform="translate(9,77)"/>
<path d="M0 0 C1.65 0 3.3 0 5 0 C5 1.65 5 3.3 5 5 C6.98 5 8.96 5 11 5 C10.67 5.66 10.34 6.32 10 7 C8.35 6.67 6.7 6.34 5 6 C5 7.65 5 9.3 5 11 C4.01 11 3.02 11 2 11 C1.67 9.35 1.34 7.7 1 6 C1.99 6 2.98 6 4 6 C4 4.35 4 2.7 4 1 C2.68 0.67 1.36 0.34 0 0 Z " fill="#888888" transform="translate(42,75)"/>
<path d="M0 0 C1.98 0 3.96 0 6 0 C6 1.65 6 3.3 6 5 C4.02 5 2.04 5 0 5 C0 3.35 0 1.7 0 0 Z " fill="#151515" transform="translate(46,44)"/>
<path d="M0 0 C2.475 0.495 2.475 0.495 5 1 C5 2.65 5 4.3 5 6 C3.35 6 1.7 6 0 6 C0 4.02 0 2.04 0 0 Z " fill="#181818" transform="translate(78,75)"/>
<path d="M0 0 C1.98 0 3.96 0 6 0 C5.67 1.65 5.34 3.3 5 5 C3.35 5 1.7 5 0 5 C0 3.35 0 1.7 0 0 Z " fill="#101010" transform="translate(73,45)"/>
<path d="M0 0 C1.65 0 3.3 0 5 0 C5.5625 1.9375 5.5625 1.9375 6 4 C5 5 5 5 2.4375 5.0625 C1.2309375 5.0315625 1.2309375 5.0315625 0 5 C0 3.35 0 1.7 0 0 Z " fill="#141414" transform="translate(47,81)"/>
<path d="M0 0 C1.65 0 3.3 0 5 0 C5 1.65 5 3.3 5 5 C3.35 5 1.7 5 0 5 C0 3.35 0 1.7 0 0 Z " fill="#121212" transform="translate(42,50)"/>
<path d="M0 0 C2.31 0.33 4.62 0.66 7 1 C7.33 1.99 7.66 2.98 8 4 C8.66 4.33 9.32 4.66 10 5 C5.2482602 4.56802365 3.07999946 3.67230705 0 0 Z " fill="#C4C4C4" transform="translate(71,27)"/>
<path d="M0 0 C1.32 0 2.64 0 4 0 C4 1.65 4 3.3 4 5 C2.68 5.33 1.36 5.66 0 6 C0 4.02 0 2.04 0 0 Z " fill="#0C0C0C" transform="translate(42,76)"/>
<path d="M0 0 C1.32 0.33 2.64 0.66 4 1 C4.33 2.98 4.66 4.96 5 7 C2.5 5.75 2.5 5.75 0 4 C0 2.68 0 1.36 0 0 Z " fill="#A9A9A7" transform="translate(15,78)"/>
</svg>
