<?xml version="1.0" encoding="UTF-8"?>
<svg version="1.1" xmlns="http://www.w3.org/2000/svg" width="128" height="128">
<path d="M0 0 C33 0 66 0 100 0 C100 1.65 100 3.3 100 5 C101.65 5 103.3 5 105 5 C105.495 7.97 105.495 7.97 106 11 C107.65 11 109.3 11 111 11 C111 42.02 111 73.04 111 105 C109.02 105 107.04 105 105 105 C105.33 106.65 105.66 108.3 106 110 C73 110 40 110 6 110 C6 108.35 6 106.7 6 105 C4.02 105 2.04 105 0 105 C0 103.02 0 101.04 0 99 C-1.65 99 -3.3 99 -5 99 C-5 67.98 -5 36.96 -5 5 C-3.35 5 -1.7 5 0 5 C0 3.35 0 1.7 0 0 Z " fill="#FCFCFC" transform="translate(11,9)"/>
<path d="M0 0 C33 0 66 0 100 0 C100 1.65 100 3.3 100 5 C101.65 5 103.3 5 105 5 C105.495 7.97 105.495 7.97 106 11 C107.65 11 109.3 11 111 11 C111 42.02 111 73.04 111 105 C109.02 105 107.04 105 105 105 C105.33 106.65 105.66 108.3 106 110 C73 110 40 110 6 110 C6 108.35 6 106.7 6 105 C4.02 105 2.04 105 0 105 C0 103.02 0 101.04 0 99 C-1.65 99 -3.3 99 -5 99 C-5 67.98 -5 36.96 -5 5 C-3.35 5 -1.7 5 0 5 C0 3.35 0 1.7 0 0 Z M4 22 C4 46.42 4 70.84 4 96 C34.69 96 65.38 96 97 96 C97 71.58 97 47.16 97 22 C66.31 22 35.62 22 4 22 Z " fill="#0A0B0B" transform="translate(11,9)"/>
<path d="M0 0 C0.495 0.99 0.495 0.99 1 2 C2.65 2 4.3 2 6 2 C6 33.02 6 64.04 6 96 C4.02 96 2.04 96 0 96 C0.33 97.65 0.66 99.3 1 101 C-32 101 -65 101 -99 101 C-99 99.35 -99 97.7 -99 96 C-99.66 95.67 -100.32 95.34 -101 95 C-69.32 95 -37.64 95 -5 95 C-5 93.35 -5 91.7 -5 90 C-3.35 90 -1.7 90 0 90 C0 60.3 0 30.6 0 0 Z " fill="#B6B6B6" transform="translate(116,18)"/>
<path d="M0 0 C30.69 0 61.38 0 93 0 C93 24.42 93 48.84 93 74 C62.31 74 31.62 74 0 74 C0 49.58 0 25.16 0 0 Z M4 5 C4 27.44 4 49.88 4 73 C33.04 73 62.08 73 92 73 C92 50.56 92 28.12 92 5 C62.96 5 33.92 5 4 5 Z " fill="#A4A4A5" transform="translate(15,31)"/>
<path d="M0 0 C1.79158489 -0.02696365 3.58328473 -0.04637917 5.375 -0.0625 C6.37273437 -0.07410156 7.37046875 -0.08570313 8.3984375 -0.09765625 C11 0 11 0 13 1 C13 1.99 13 2.98 13 4 C13.66 4 14.32 4 15 4 C15 4.66 15 5.32 15 6 C15.66 6 16.32 6 17 6 C17.02688151 7.64574566 17.04634123 9.29161413 17.0625 10.9375 C17.07410156 11.85402344 17.08570312 12.77054688 17.09765625 13.71484375 C17 16 17 16 16 17 C14.33382885 17.04063832 12.66611905 17.042721 11 17 C11.33 18.65 11.66 20.3 12 22 C10.39620659 22.05416188 8.79188594 22.09286638 7.1875 22.125 C6.29417969 22.14820312 5.40085937 22.17140625 4.48046875 22.1953125 C2 22 2 22 -1 20 C-1 19.34 -1 18.68 -1 18 C-1.66 18 -2.32 18 -3 18 C-3 17.34 -3 16.68 -3 16 C-3.66 16 -4.32 16 -5 16 C-5 12.04 -5 8.08 -5 4 C-4.34 4 -3.68 4 -3 4 C-3 3.34 -3 2.68 -3 2 C-2.01 2 -1.02 2 0 2 C0 1.34 0 0.68 0 0 Z " fill="#BDBDBD" transform="translate(75,39)"/>
<path d="M0 0 C2.97 0 5.94 0 9 0 C9 0.66 9 1.32 9 2 C9.99 1.67 10.98 1.34 12 1 C14.33299825 0.96045766 16.66708189 0.95598268 19 1 C19 1.66 19 2.32 19 3 C19.66 3 20.32 3 21 3 C21 5.97 21 8.94 21 12 C20.34 12 19.68 12 19 12 C19 12.66 19 13.32 19 14 C16.69 14 14.38 14 12 14 C12 13.34 12 12.68 12 12 C11.34 12 10.68 12 10 12 C10 10.02 10 8.04 10 6 C8.35 6 6.7 6 5 6 C5 9.3 5 12.6 5 16 C4.34 16 3.68 16 3 16 C3 15.34 3 14.68 3 14 C2.01 14 1.02 14 0 14 C0 9.38 0 4.76 0 0 Z " fill="#A3A3A3" transform="translate(23,43)"/>
<path d="M0 0 C1.79158489 -0.02696365 3.58328473 -0.04637917 5.375 -0.0625 C6.37273437 -0.07410156 7.37046875 -0.08570313 8.3984375 -0.09765625 C11 0 11 0 13 1 C13 1.99 13 2.98 13 4 C13.66 4 14.32 4 15 4 C15 7.63 15 11.26 15 15 C10.71 15 6.42 15 2 15 C2 14.34 2 13.68 2 13 C1.34 13 0.68 13 0 13 C0 10.69 0 8.38 0 6 C0.66 6 1.32 6 2 6 C2.33 5.01 2.66 4.02 3 3 C2.01 2.67 1.02 2.34 0 2 C0 1.34 0 0.68 0 0 Z " fill="#696969" transform="translate(75,39)"/>
<path d="M0 0 C9.9 0 19.8 0 30 0 C30 1.32 30 2.64 30 4 C0.96 4 -28.08 4 -58 4 C-58 3.67 -58 3.34 -58 3 C-38.86 3 -19.72 3 0 3 C0 2.01 0 1.02 0 0 Z " fill="#C2C2C2" transform="translate(77,32)"/>
<path d="M0 0 C6.6 0 13.2 0 20 0 C20 0.99 20 1.98 20 3 C20.99 3 21.98 3 23 3 C23 4.65 23 6.3 23 8 C16.4 8 9.8 8 3 8 C3 7.34 3 6.68 3 6 C2.01 6 1.02 6 0 6 C0 4.02 0 2.04 0 0 Z " fill="#B4B5B5" transform="translate(44,87)"/>
<path d="M0 0 C0.99 0 1.98 0 3 0 C3 0.99 3 1.98 3 3 C4.65 3 6.3 3 8 3 C8 3.99 8 4.98 8 6 C5.03 6 2.06 6 -1 6 C-1 7.32 -1 8.64 -1 10 C1.31 10 3.62 10 6 10 C6 10.99 6 11.98 6 13 C6.66 13 7.32 13 8 13 C8 14.65 8 16.3 8 18 C7.34 18 6.68 18 6 18 C6 18.66 6 19.32 6 20 C5.01 20 4.02 20 3 20 C3 20.99 3 21.98 3 23 C2.01 23 1.02 23 0 23 C0 22.34 0 21.68 0 21 C-1.65 21 -3.3 21 -5 21 C-5 19.68 -5 18.36 -5 17 C-1.7 17 1.6 17 5 17 C5 15.68 5 14.36 5 13 C2.69 13 0.38 13 -2 13 C-2 12.34 -2 11.68 -2 11 C-2.99 11 -3.98 11 -5 11 C-5 9.02 -5 7.04 -5 5 C-4.34 5 -3.68 5 -3 5 C-3 4.34 -3 3.68 -3 3 C-2.01 3 -1.02 3 0 3 C0 2.01 0 1.02 0 0 Z " fill="#4D4D4D" transform="translate(28,65)"/>
<path d="M0 0 C0.33 0 0.66 0 1 0 C1.33 16.5 1.66 33 2 50 C2.99 49.505 2.99 49.505 4 49 C4 56.59 4 64.18 4 72 C2.68 72 1.36 72 0 72 C0 48.24 0 24.48 0 0 Z " fill="#B3B3B3" transform="translate(15,32)"/>
<path d="M0 0 C1.98 0 3.96 0 6 0 C6 0.66 6 1.32 6 2 C6.99 2 7.98 2 9 2 C9 4.97 9 7.94 9 11 C8.01 11 7.02 11 6 11 C6 11.66 6 12.32 6 13 C4.02 13 2.04 13 0 13 C0 12.34 0 11.68 0 11 C-0.66 11 -1.32 11 -2 11 C-2 8.03 -2 5.06 -2 2 C-1.34 2 -0.68 2 0 2 C0 1.34 0 0.68 0 0 Z " fill="#232323" transform="translate(49,44)"/>
<path d="M0 0 C1.98 0 3.96 0 6 0 C6 0.66 6 1.32 6 2 C6.66 2 7.32 2 8 2 C8 4.97 8 7.94 8 11 C7.34 11 6.68 11 6 11 C6 11.66 6 12.32 6 13 C3.69 13 1.38 13 -1 13 C-2.28317892 9.15046324 -2.06643637 6.05261865 -2 2 C-1.34 2 -0.68 2 0 2 C0 1.34 0 0.68 0 0 Z " fill="#262626" transform="translate(36,44)"/>
<path d="M0 0 C0.99 0 1.98 0 3 0 C3 3.63 3 7.26 3 11 C-1.29 11 -5.58 11 -10 11 C-10 10.34 -10 9.68 -10 9 C-10.66 9 -11.32 9 -12 9 C-12 7.02 -12 5.04 -12 3 C-11.34 3 -10.68 3 -10 3 C-10 4.65 -10 6.3 -10 8 C-8.68 8 -7.36 8 -6 8 C-6 6.02 -6 4.04 -6 2 C-6.99 1.67 -7.98 1.34 -9 1 C-7.02 1 -5.04 1 -3 1 C-3 3.64 -3 6.28 -3 9 C-2.01 9 -1.02 9 0 9 C0 6.03 0 3.06 0 0 Z " fill="#1D1D1D" transform="translate(87,43)"/>
<path d="M0 0 C0.99 0 1.98 0 3 0 C3 0.66 3 1.32 3 2 C2.34 2 1.68 2 1 2 C1 5.63 1 9.26 1 13 C1.66 13 2.32 13 3 13 C3 13.66 3 14.32 3 15 C6.3 15 9.6 15 13 15 C13 15.99 13 16.98 13 18 C9.37 18 5.74 18 2 18 C2 17.34 2 16.68 2 16 C1.34 16 0.68 16 0 16 C0 15.34 0 14.68 0 14 C-0.66 14 -1.32 14 -2 14 C-2 10.04 -2 6.08 -2 2 C-1.34 2 -0.68 2 0 2 C0 1.34 0 0.68 0 0 Z " fill="#3E3E3E" transform="translate(72,41)"/>
<path d="M0 0 C6.27 0 12.54 0 19 0 C19 1.32 19 2.64 19 4 C12.73 4 6.46 4 0 4 C0 2.68 0 1.36 0 0 Z " fill="#0B0B0B" transform="translate(45,88)"/>
<path d="M0 0 C0.66 0 1.32 0 2 0 C2.33 0.99 2.66 1.98 3 3 C3.66 3.33 4.32 3.66 5 4 C5 4.66 5 5.32 5 6 C4.34 6 3.68 6 3 6 C3 8.64 3 11.28 3 14 C3.66 14 4.32 14 5 14 C5 14.99 5 15.98 5 17 C3.68 17 2.36 17 1 17 C-0.20272819 14.59454362 -0.10071472 13.05003047 -0.0625 10.375 C-0.05347656 9.55773438 -0.04445312 8.74046875 -0.03515625 7.8984375 C-0.02355469 7.27195312 -0.01195312 6.64546875 0 6 C-0.66 6 -1.32 6 -2 6 C-2 5.34 -2 4.68 -2 4 C-1.34 4 -0.68 4 0 4 C0 2.68 0 1.36 0 0 Z " fill="#080808" transform="translate(62,40)"/>
<path d="M0 0 C0.99 0 1.98 0 3 0 C3 0.99 3 1.98 3 3 C3.66 3 4.32 3 5 3 C5 5.97 5 8.94 5 12 C4.34 12 3.68 12 3 12 C3.33 13.32 3.66 14.64 4 16 C2.35 15.67 0.7 15.34 -1 15 C-0.01 14.67 0.98 14.34 2 14 C2 13.01 2 12.02 2 11 C1.34 11 0.68 11 0 11 C0 8.36 0 5.72 0 3 C0.66 3 1.32 3 2 3 C2 2.34 2 1.68 2 1 C1.34 0.67 0.68 0.34 0 0 Z " fill="#B7B7B7" transform="translate(65,43)"/>
<path d="M0 0 C2.31 0 4.62 0 7 0 C7 2.64 7 5.28 7 8 C4.69 8 2.38 8 0 8 C0 5.36 0 2.72 0 0 Z " fill="#989899" transform="translate(43,17)"/>
<path d="M0 0 C2.31 0 4.62 0 7 0 C7 2.64 7 5.28 7 8 C4.69 8 2.38 8 0 8 C0 5.36 0 2.72 0 0 Z " fill="#9FA09F" transform="translate(15,17)"/>
<path d="M0 0 C0.33 0.66 0.66 1.32 1 2 C1.66 2 2.32 2 3 2 C3 4.97 3 7.94 3 11 C1.02 11.99 1.02 11.99 -1 13 C-1 13.66 -1 14.32 -1 15 C-3.31 15 -5.62 15 -8 15 C-8 14.34 -8 13.68 -8 13 C-6.68 13 -5.36 13 -4 13 C-4 12.34 -4 11.68 -4 11 C-3.01 11 -2.02 11 -1 11 C-1.020625 9.741875 -1.04125 8.48375 -1.0625 7.1875 C-1.10886083 4.35948913 -0.91692961 2.75078884 0 0 Z " fill="#B5B5B5" transform="translate(59,44)"/>
<path d="M0 0 C0.99 0 1.98 0 3 0 C3 0.99 3 1.98 3 3 C4.65 3 6.3 3 8 3 C8 3.99 8 4.98 8 6 C4.7 6 1.4 6 -2 6 C-2 7.32 -2 8.64 -2 10 C-2.66 10 -3.32 10 -4 10 C-3.67 7.69 -3.34 5.38 -3 3 C-2.01 3 -1.02 3 0 3 C0 2.01 0 1.02 0 0 Z " fill="#262626" transform="translate(28,65)"/>
<path d="M0 0 C2.64 0 5.28 0 8 0 C8 0.66 8 1.32 8 2 C6.68 2 5.36 2 4 2 C3.67 5.63 3.34 9.26 3 13 C2.01 13 1.02 13 0 13 C0 8.71 0 4.42 0 0 Z " fill="#262626" transform="translate(23,44)"/>
<path d="M0 0 C2.31 0 4.62 0 7 0 C7 2.31 7 4.62 7 7 C4.69 7 2.38 7 0 7 C0 4.69 0 2.38 0 0 Z " fill="#A7A7A7" transform="translate(29,18)"/>
<path d="M0 0 C0.99 0 1.98 0 3 0 C3 3.63 3 7.26 3 11 C2.01 11 1.02 11 0 11 C0 11.66 0 12.32 0 13 C-1.98 13 -3.96 13 -6 13 C-6 12.34 -6 11.68 -6 11 C-4.68 11 -3.36 11 -2 11 C-2 10.34 -2 9.68 -2 9 C-1.34 9 -0.68 9 0 9 C0 6.03 0 3.06 0 0 Z " fill="#B9B9B9" transform="translate(44,46)"/>
<path d="M0 0 C1.65 0 3.3 0 5 0 C5 2.64 5 5.28 5 8 C3.35 8 1.7 8 0 8 C0 5.36 0 2.72 0 0 Z " fill="#BDBDBD" transform="translate(36,46)"/>
<path d="M0 0 C1.65 0 3.3 0 5 0 C5 2.64 5 5.28 5 8 C3.35 8 1.7 8 0 8 C0 5.36 0 2.72 0 0 Z " fill="#B8B8B8" transform="translate(50,46)"/>
<path d="M0 0 C0.66 0 1.32 0 2 0 C2 1.98 2 3.96 2 6 C0.35 6.33 -1.3 6.66 -3 7 C-3 8.32 -3 9.64 -3 11 C-3.66 11 -4.32 11 -5 11 C-5 10.34 -5 9.68 -5 9 C-5.99 8.67 -6.98 8.34 -8 8 C-7.01 8 -6.02 8 -5 8 C-5 7.01 -5 6.02 -5 5 C-4.01 5 -3.02 5 -2 5 C-2 4.34 -2 3.68 -2 3 C-1.34 3 -0.68 3 0 3 C0 2.01 0 1.02 0 0 Z " fill="#ACACAC" transform="translate(36,80)"/>
<path d="M0 0 C0.99 0.495 0.99 0.495 2 1 C1.67 2.32 1.34 3.64 1 5 C1.66 5 2.32 5 3 5 C3.33 3.68 3.66 2.36 4 1 C4 2.32 4 3.64 4 5 C6.31 5 8.62 5 11 5 C11 5.99 11 6.98 11 8 C8.36 8 5.72 8 3 8 C3 7.34 3 6.68 3 6 C2.01 6 1.02 6 0 6 C0 4.02 0 2.04 0 0 Z " fill="#464646" transform="translate(23,70)"/>
<path d="M0 0 C3.63 0 7.26 0 11 0 C11 0.99 11 1.98 11 3 C7.37 3.33 3.74 3.66 0 4 C0 2.68 0 1.36 0 0 Z " fill="#ACACAC" transform="translate(27,71)"/>
<path d="M0 0 C2.31 0 4.62 0 7 0 C6.01 0.66 5.02 1.32 4 2 C3.7497843 5.08365871 3.7497843 5.08365871 4 8 C2.68 8 1.36 8 0 8 C0 6.35 0 4.7 0 3 C-0.66 2.67 -1.32 2.34 -2 2 C-1.34 2 -0.68 2 0 2 C0 1.34 0 0.68 0 0 Z " fill="#808080" transform="translate(77,43)"/>
<path d="M0 0 C0.99 0 1.98 0 3 0 C3 1.98 3 3.96 3 6 C2.34 6 1.68 6 1 6 C1.33 7.32 1.66 8.64 2 10 C0.35 9.67 -1.3 9.34 -3 9 C-2.01 8.67 -1.02 8.34 0 8 C0 5.36 0 2.72 0 0 Z " fill="#D7D7D7" transform="translate(67,49)"/>
<path d="M0 0 C2.97 0 5.94 0 9 0 C9 0.66 9 1.32 9 2 C8.34 2 7.68 2 7 2 C7 2.99 7 3.98 7 5 C6.01 5 5.02 5 4 5 C4 4.01 4 3.02 4 2 C2.68 2 1.36 2 0 2 C0 1.34 0 0.68 0 0 Z " fill="#131313" transform="translate(24,83)"/>
<path d="M0 0 C0.33 0 0.66 0 1 0 C1 2.64 1 5.28 1 8 C1.66 8 2.32 8 3 8 C3 8.99 3 9.98 3 11 C1.68 11 0.36 11 -1 11 C-1.33 10.01 -1.66 9.02 -2 8 C-1.34 8 -0.68 8 0 8 C0 5.36 0 2.72 0 0 Z " fill="#4A4A4A" transform="translate(64,46)"/>
<path d="M0 0 C0.66 0 1.32 0 2 0 C2 1.98 2 3.96 2 6 C0.68 6 -0.64 6 -2 6 C-2 5.01 -2 4.02 -2 3 C-1.34 3 -0.68 3 0 3 C0 2.01 0 1.02 0 0 Z " fill="#BFBFBF" transform="translate(36,80)"/>
<path d="M0 0 C3.63 0.33 7.26 0.66 11 1 C11 1.33 11 1.66 11 2 C7.37 2.33 3.74 2.66 0 3 C0 2.01 0 1.02 0 0 Z " fill="#BEBEBE" transform="translate(27,72)"/>
</svg>
