<?xml version="1.0" encoding="UTF-8"?>
<svg version="1.1" xmlns="http://www.w3.org/2000/svg" width="128" height="128">
<path d="M0 0 C0.639375 0.2475 1.27875 0.495 1.9375 0.75 C2.2675 1.74 2.5975 2.73 2.9375 3.75 C3.5975 3.42 4.2575 3.09 4.9375 2.75 C6.6779417 2.66550372 8.42159722 2.64276976 10.1640625 2.65234375 C11.1953125 2.65556641 12.2265625 2.65878906 13.2890625 2.66210938 C14.90941406 2.67467773 14.90941406 2.67467773 16.5625 2.6875 C18.19445313 2.69426758 18.19445313 2.69426758 19.859375 2.70117188 C22.55213789 2.71298224 25.24479188 2.72945222 27.9375 2.75 C27.9375 3.74 27.9375 4.73 27.9375 5.75 C29.2575 5.75 30.5775 5.75 31.9375 5.75 C31.9375 4.1 31.9375 2.45 31.9375 0.75 C33.9175 0.75 35.8975 0.75 37.9375 0.75 C37.9375 2.07 37.9375 3.39 37.9375 4.75 C38.9275 4.09 39.9175 3.43 40.9375 2.75 C43.3894043 2.52294922 43.3894043 2.52294922 46.26171875 2.5546875 C47.80375977 2.56435547 47.80375977 2.56435547 49.37695312 2.57421875 C50.44880859 2.59097656 51.52066406 2.60773437 52.625 2.625 C53.70845703 2.63402344 54.79191406 2.64304687 55.90820312 2.65234375 C58.5848571 2.6759266 61.26106797 2.70883874 63.9375 2.75 C64.4325 4.235 64.4325 4.235 64.9375 5.75 C65.9275 5.75 66.9175 5.75 67.9375 5.75 C67.9375 4.1 67.9375 2.45 67.9375 0.75 C69.9175 0.75 71.8975 0.75 73.9375 0.75 C73.9375 2.07 73.9375 3.39 73.9375 4.75 C74.5975 4.75 75.2575 4.75 75.9375 4.75 C76.2675 4.09 76.5975 3.43 76.9375 2.75 C84.5275 2.75 92.1175 2.75 99.9375 2.75 C100.4325 4.235 100.4325 4.235 100.9375 5.75 C101.9275 5.75 102.9175 5.75 103.9375 5.75 C103.9375 4.1 103.9375 2.45 103.9375 0.75 C105.5875 0.75 107.2375 0.75 108.9375 0.75 C108.9375 1.74 108.9375 2.73 108.9375 3.75 C110.2575 3.75 111.5775 3.75 112.9375 3.75 C112.9375 36.75 112.9375 69.75 112.9375 103.75 C111.2875 103.42 109.6375 103.09 107.9375 102.75 C107.9375 101.76 107.9375 100.77 107.9375 99.75 C105.9575 99.255 105.9575 99.255 103.9375 98.75 C103.9375 71.69 103.9375 44.63 103.9375 16.75 C96.3475 16.75 88.7575 16.75 80.9375 16.75 C80.9375 15.43 80.9375 14.11 80.9375 12.75 C79.6175 12.75 78.2975 12.75 76.9375 12.75 C77.4325 15.72 77.4325 15.72 77.9375 18.75 C78.53288574 18.74476318 79.12827148 18.73952637 79.74169922 18.73413086 C82.43195547 18.71338001 85.12219489 18.70034593 87.8125 18.6875 C88.74964844 18.67912109 89.68679687 18.67074219 90.65234375 18.66210938 C91.99619141 18.65727539 91.99619141 18.65727539 93.3671875 18.65234375 C94.60831299 18.64448853 94.60831299 18.64448853 95.87451172 18.63647461 C97.9375 18.75 97.9375 18.75 99.9375 19.75 C99.9375 20.74 99.9375 21.73 99.9375 22.75 C100.9275 22.75 101.9175 22.75 102.9375 22.75 C102.9375 30.34 102.9375 37.93 102.9375 45.75 C95.6775 45.75 88.4175 45.75 80.9375 45.75 C80.9375 44.76 80.9375 43.77 80.9375 42.75 C79.6175 42.75 78.2975 42.75 76.9375 42.75 C76.9375 62.88 76.9375 83.01 76.9375 103.75 C75.2875 103.42 73.6375 103.09 71.9375 102.75 C71.9375 102.09 71.9375 101.43 71.9375 100.75 C70.4525 100.255 70.4525 100.255 68.9375 99.75 C67.67692328 93.9102876 67.79349766 88.13744983 67.8046875 82.1953125 C67.80373077 81.06213593 67.80277405 79.92895935 67.80178833 78.76144409 C67.80110822 76.35577336 67.80295073 73.95010079 67.80712891 71.54443359 C67.81239 67.95015047 67.80722527 64.35599753 67.80078125 60.76171875 C67.79689517 45.73424826 68.170251 30.75789101 68.9375 15.75 C68.2775 16.08 67.6175 16.41 66.9375 16.75 C65.2700394 16.83426094 63.59924813 16.85725143 61.9296875 16.84765625 C60.94355469 16.84443359 59.95742187 16.84121094 58.94140625 16.83789062 C57.90886719 16.82951172 56.87632813 16.82113281 55.8125 16.8125 C54.25208984 16.80573242 54.25208984 16.80573242 52.66015625 16.79882812 C50.08588038 16.78701952 47.51171854 16.77055075 44.9375 16.75 C44.9375 15.43 44.9375 14.11 44.9375 12.75 C43.6175 12.75 42.2975 12.75 40.9375 12.75 C40.9375 14.73 40.9375 16.71 40.9375 18.75 C48.5275 18.75 56.1175 18.75 63.9375 18.75 C63.9375 20.07 63.9375 21.39 63.9375 22.75 C64.9275 22.75 65.9175 22.75 66.9375 22.75 C66.96434679 25.39590014 66.98426357 28.04153096 67 30.6875 C67.00837891 31.44224609 67.01675781 32.19699219 67.02539062 32.97460938 C67.03402441 34.89994313 66.98974333 36.82535581 66.9375 38.75 C65.9375 39.75 65.9375 39.75 63.89624023 39.86352539 C62.58441772 39.85567017 62.58441772 39.85567017 61.24609375 39.84765625 C60.30185547 39.84443359 59.35761719 39.84121094 58.38476562 39.83789062 C57.39154297 39.82951172 56.39832031 39.82113281 55.375 39.8125 C54.37791016 39.80798828 53.38082031 39.80347656 52.35351562 39.79882812 C49.88145151 39.78700007 47.40950482 39.77051849 44.9375 39.75 C44.6075 38.76 44.2775 37.77 43.9375 36.75 C42.9475 36.75 41.9575 36.75 40.9375 36.75 C40.9375 38.07 40.9375 39.39 40.9375 40.75 C48.5275 40.75 56.1175 40.75 63.9375 40.75 C63.9375 41.74 63.9375 42.73 63.9375 43.75 C64.9275 43.75 65.9175 43.75 66.9375 43.75 C66.96638514 46.89581423 66.98425923 50.04159469 67 53.1875 C67.00837891 54.08533203 67.01675781 54.98316406 67.02539062 55.90820312 C67.02861328 56.76220703 67.03183594 57.61621094 67.03515625 58.49609375 C67.04039307 59.28685303 67.04562988 60.0776123 67.05102539 60.89233398 C66.9375 62.75 66.9375 62.75 65.9375 63.75 C64.37577255 63.83685603 62.81020656 63.85702219 61.24609375 63.84765625 C60.30185547 63.84443359 59.35761719 63.84121094 58.38476562 63.83789062 C57.39154297 63.82951172 56.39832031 63.82113281 55.375 63.8125 C54.37791016 63.80798828 53.38082031 63.80347656 52.35351562 63.79882812 C49.88145151 63.78700007 47.40950482 63.77051849 44.9375 63.75 C44.9375 62.76 44.9375 61.77 44.9375 60.75 C43.6175 60.75 42.2975 60.75 40.9375 60.75 C40.9375 74.94 40.9375 89.13 40.9375 103.75 C39.2875 103.42 37.6375 103.09 35.9375 102.75 C35.9375 102.09 35.9375 101.43 35.9375 100.75 C34.6175 100.09 33.2975 99.43 31.9375 98.75 C31.6075 71.69 31.2775 44.63 30.9375 16.75 C23.6775 16.75 16.4175 16.75 8.9375 16.75 C8.6075 15.43 8.2775 14.11 7.9375 12.75 C6.9475 12.75 5.9575 12.75 4.9375 12.75 C5.2675 14.73 5.5975 16.71 5.9375 18.75 C13.1975 18.75 20.4575 18.75 27.9375 18.75 C27.9375 20.07 27.9375 21.39 27.9375 22.75 C28.9275 22.75 29.9175 22.75 30.9375 22.75 C30.9375 29.68 30.9375 36.61 30.9375 43.75 C23.6775 43.75 16.4175 43.75 8.9375 43.75 C8.9375 43.09 8.9375 42.43 8.9375 41.75 C7.6175 41.42 6.2975 41.09 4.9375 40.75 C4.9375 61.54 4.9375 82.33 4.9375 103.75 C3.6175 103.75 2.2975 103.75 0.9375 103.75 C0.9375 102.43 0.9375 101.11 0.9375 99.75 C-0.7125 99.42 -2.3625 99.09 -4.0625 98.75 C-4.0625 66.41 -4.0625 34.07 -4.0625 0.75 C-2.0625 -0.25 -2.0625 -0.25 0 0 Z " fill="#1F1F1F" transform="translate(10.0625,12.25)"/>
<path d="M0 0 C0.639375 0.2475 1.27875 0.495 1.9375 0.75 C2.2675 1.74 2.5975 2.73 2.9375 3.75 C3.5975 3.42 4.2575 3.09 4.9375 2.75 C6.6779417 2.66550372 8.42159722 2.64276976 10.1640625 2.65234375 C11.1953125 2.65556641 12.2265625 2.65878906 13.2890625 2.66210938 C14.90941406 2.67467773 14.90941406 2.67467773 16.5625 2.6875 C18.19445313 2.69426758 18.19445313 2.69426758 19.859375 2.70117188 C22.55213789 2.71298224 25.24479188 2.72945222 27.9375 2.75 C27.9375 3.74 27.9375 4.73 27.9375 5.75 C29.2575 5.75 30.5775 5.75 31.9375 5.75 C31.9375 4.1 31.9375 2.45 31.9375 0.75 C33.5875 0.75 35.2375 0.75 36.9375 0.75 C36.9375 33.09 36.9375 65.43 36.9375 98.75 C35.2875 98.75 33.6375 98.75 31.9375 98.75 C31.6075 71.69 31.2775 44.63 30.9375 16.75 C23.6775 16.75 16.4175 16.75 8.9375 16.75 C8.6075 15.43 8.2775 14.11 7.9375 12.75 C6.9475 12.75 5.9575 12.75 4.9375 12.75 C5.2675 14.73 5.5975 16.71 5.9375 18.75 C13.1975 18.75 20.4575 18.75 27.9375 18.75 C27.9375 20.07 27.9375 21.39 27.9375 22.75 C28.9275 22.75 29.9175 22.75 30.9375 22.75 C30.9375 29.68 30.9375 36.61 30.9375 43.75 C23.6775 43.75 16.4175 43.75 8.9375 43.75 C8.9375 43.09 8.9375 42.43 8.9375 41.75 C7.6175 41.42 6.2975 41.09 4.9375 40.75 C4.9375 61.54 4.9375 82.33 4.9375 103.75 C3.6175 103.75 2.2975 103.75 0.9375 103.75 C0.9375 102.43 0.9375 101.11 0.9375 99.75 C-0.7125 99.42 -2.3625 99.09 -4.0625 98.75 C-4.0625 66.41 -4.0625 34.07 -4.0625 0.75 C-2.0625 -0.25 -2.0625 -0.25 0 0 Z " fill="#272727" transform="translate(10.0625,12.25)"/>
<path d="M0 0 C0.33 1.32 0.66 2.64 1 4 C1.99 3.67 2.98 3.34 4 3 C4 7.95 4 12.9 4 18 C11.59 18 19.18 18 27 18 C27 19.32 27 20.64 27 22 C27.99 22 28.98 22 30 22 C30.02684679 24.64590014 30.04676357 27.29153096 30.0625 29.9375 C30.07087891 30.69224609 30.07925781 31.44699219 30.08789062 32.22460938 C30.09652441 34.14994313 30.05224333 36.07535581 30 38 C29 39 29 39 26.95874023 39.11352539 C25.64691772 39.10567017 25.64691772 39.10567017 24.30859375 39.09765625 C23.36435547 39.09443359 22.42011719 39.09121094 21.44726562 39.08789062 C20.45404297 39.07951172 19.46082031 39.07113281 18.4375 39.0625 C17.44041016 39.05798828 16.44332031 39.05347656 15.41601562 39.04882812 C12.94395151 39.03700007 10.47200482 39.02051849 8 39 C7.505 37.515 7.505 37.515 7 36 C6.01 36 5.02 36 4 36 C4 37.32 4 38.64 4 40 C11.59 40 19.18 40 27 40 C27 40.99 27 41.98 27 43 C27.99 43 28.98 43 30 43 C30.02888514 46.14581423 30.04675923 49.29159469 30.0625 52.4375 C30.07087891 53.33533203 30.07925781 54.23316406 30.08789062 55.15820312 C30.09111328 56.01220703 30.09433594 56.86621094 30.09765625 57.74609375 C30.10289307 58.53685303 30.10812988 59.3276123 30.11352539 60.14233398 C30 62 30 62 29 63 C27.43827255 63.08685603 25.87270656 63.10702219 24.30859375 63.09765625 C23.36435547 63.09443359 22.42011719 63.09121094 21.44726562 63.08789062 C20.45404297 63.07951172 19.46082031 63.07113281 18.4375 63.0625 C17.44041016 63.05798828 16.44332031 63.05347656 15.41601562 63.04882812 C12.94395151 63.03700007 10.47200482 63.02051849 8 63 C8 62.01 8 61.02 8 60 C6.68 60 5.36 60 4 60 C4 74.19 4 88.38 4 103 C2.35 102.67 0.7 102.34 -1 102 C-1 101.34 -1 100.68 -1 100 C-1.99 99.34 -2.98 98.68 -4 98 C-2.68 98 -1.36 98 0 98 C0 65.66 0 33.32 0 0 Z " fill="#0D0D0D" transform="translate(47,13)"/>
<path d="M0 0 C1.65 0 3.3 0 5 0 C5 32.34 5 64.68 5 98 C3.35 98 1.7 98 0 98 C-0.33 70.94 -0.66 43.88 -1 16 C-8.26 16 -15.52 16 -23 16 C-23.33 14.68 -23.66 13.36 -24 12 C-24.99 12 -25.98 12 -27 12 C-27 8.7 -27 5.4 -27 2 C-19.41 2 -11.82 2 -4 2 C-4 2.99 -4 3.98 -4 5 C-2.68 5 -1.36 5 0 5 C0 3.35 0 1.7 0 0 Z " fill="#111111" transform="translate(42,13)"/>
<path d="M0 0 C1.65 0 3.3 0 5 0 C5 32.34 5 64.68 5 98 C3.35 97.67 1.7 97.34 0 97 C-0.02357284 89.85224398 -0.04113671 82.70449685 -0.05181217 75.55670929 C-0.05694578 72.23472662 -0.06444367 68.91279163 -0.07543945 65.59082031 C-0.1298686 48.69857395 0.10888744 31.87049327 1 15 C0.01 15.495 0.01 15.495 -1 16 C-2.6674606 16.08426094 -4.33825187 16.10725143 -6.0078125 16.09765625 C-6.99394531 16.09443359 -7.98007813 16.09121094 -8.99609375 16.08789062 C-10.02863281 16.07951172 -11.06117187 16.07113281 -12.125 16.0625 C-13.68541016 16.05573242 -13.68541016 16.05573242 -15.27734375 16.04882812 C-17.85161962 16.03701952 -20.42578146 16.02055075 -23 16 C-23 14.68 -23 13.36 -23 12 C-24.32 12 -25.64 12 -27 12 C-27 8.7 -27 5.4 -27 2 C-19.41 2 -11.82 2 -4 2 C-3.67 2.99 -3.34 3.98 -3 5 C-2.01 5 -1.02 5 0 5 C0 3.35 0 1.7 0 0 Z " fill="#131313" transform="translate(78,13)"/>
<path d="M0 0 C0 32.34 0 64.68 0 98 C-1.98 98 -3.96 98 -6 98 C-6 65.66 -6 33.32 -6 0 C-4 -1 -4 -1 0 0 Z " fill="#383838" transform="translate(12,13)"/>
<path d="M0 0 C7.59 0 15.18 0 23 0 C23 0.66 23 1.32 23 2 C23.99 2 24.98 2 26 2 C26.02888514 5.14581423 26.04675923 8.29159469 26.0625 11.4375 C26.07087891 12.33533203 26.07925781 13.23316406 26.08789062 14.15820312 C26.09272461 15.43920898 26.09272461 15.43920898 26.09765625 16.74609375 C26.10551147 17.93223267 26.10551147 17.93223267 26.11352539 19.14233398 C26 21 26 21 25 22 C23.43827255 22.08685603 21.87270656 22.10702219 20.30859375 22.09765625 C19.36435547 22.09443359 18.42011719 22.09121094 17.44726562 22.08789062 C15.95743164 22.07532227 15.95743164 22.07532227 14.4375 22.0625 C13.44041016 22.05798828 12.44332031 22.05347656 11.41601562 22.04882812 C8.94395151 22.03700007 6.47200482 22.02051849 4 22 C4 21.01 4 20.02 4 19 C2.68 19 1.36 19 0 19 C0 12.73 0 6.46 0 0 Z " fill="#1E1E1E" transform="translate(51,54)"/>
<path d="M0 0 C0.33 1.32 0.66 2.64 1 4 C1.99 3.67 2.98 3.34 4 3 C4 7.95 4 12.9 4 18 C11.59 18 19.18 18 27 18 C27 18.33 27 18.66 27 19 C19.41 19 11.82 19 4 19 C4 25.93 4 32.86 4 40 C11.59 40 19.18 40 27 40 C27 40.33 27 40.66 27 41 C19.41 41 11.82 41 4 41 C4 61.46 4 81.92 4 103 C2.35 102.67 0.7 102.34 -1 102 C-1 101.34 -1 100.68 -1 100 C-1.99 99.34 -2.98 98.68 -4 98 C-2.68 98 -1.36 98 0 98 C0 65.66 0 33.32 0 0 Z " fill="#AAAAAA" transform="translate(47,13)"/>
<path d="M0 0 C0.33 1.32 0.66 2.64 1 4 C1.99 4.33 2.98 4.66 4 5 C4.77857366 13.02208933 5.0829734 20.97725827 5.0625 29.03125 C5.06117065 30.0122316 5.05984131 30.9932132 5.05847168 32.00392151 C5.01798198 45.28960562 4.77067458 58.57318729 4.53643799 71.85656738 C4.47466819 75.38417134 4.41518175 78.91181386 4.35546875 82.43945312 C4.23913802 89.29300675 4.1203987 96.14651666 4 103 C2.35 102.67 0.7 102.34 -1 102 C-1 101.34 -1 100.68 -1 100 C-1.99 99.34 -2.98 98.68 -4 98 C-2.68 98 -1.36 98 0 98 C0 65.66 0 33.32 0 0 Z " fill="#B0B0B0" transform="translate(83,13)"/>
<path d="M0 0 C1.32 0 2.64 0 4 0 C4 33 4 66 4 100 C2.35 99.67 0.7 99.34 -1 99 C-1 98.01 -1 97.02 -1 96 C-1.99 95.67 -2.98 95.34 -4 95 C-2.68 95 -1.36 95 0 95 C0 63.65 0 32.3 0 0 Z " fill="#B8B8B8" transform="translate(119,16)"/>
<path d="M0 0 C1.32 0 2.64 0 4 0 C4 32.34 4 64.68 4 98 C2.68 98 1.36 98 0 98 C0 65.66 0 33.32 0 0 Z " fill="#010101" transform="translate(115,13)"/>
<path d="M0 0 C1.32 0 2.64 0 4 0 C4 32.34 4 64.68 4 98 C2.68 98 1.36 98 0 98 C0 65.66 0 33.32 0 0 Z " fill="#020203" transform="translate(43,13)"/>
<path d="M0 0 C0.66 0 1.32 0 2 0 C2 33 2 66 2 100 C0.68 100 -0.64 100 -2 100 C-2 98.68 -2 97.36 -2 96 C-3.32 95.67 -4.64 95.34 -6 95 C-4.35 95 -2.7 95 -1 95 C-1.00222061 93.82458145 -1.00444122 92.6491629 -1.00672913 91.43812561 C-1.02695902 80.38661323 -1.0419714 69.33510458 -1.05181217 58.28357792 C-1.05704139 52.60123488 -1.06413973 46.91890673 -1.07543945 41.23657227 C-1.08626696 35.75770864 -1.09227654 30.27885938 -1.09487724 24.79998589 C-1.09673174 22.70470389 -1.10035282 20.60942272 -1.10573006 18.5141468 C-1.11293868 15.59022416 -1.11399102 12.66636167 -1.11352539 9.74243164 C-1.11712067 8.8670575 -1.12071594 7.99168335 -1.12442017 7.08978271 C-1.11405216 1.11405216 -1.11405216 1.11405216 0 0 Z " fill="#BEBEBE" transform="translate(13,16)"/>
<path d="M0 0 C5.28 0 10.56 0 16 0 C16 5.28 16 10.56 16 16 C10.72 16 5.44 16 0 16 C0 10.72 0 5.44 0 0 Z " fill="#BABABB" transform="translate(91,35)"/>
<path d="M0 0 C5.28 0 10.56 0 16 0 C16 4.95 16 9.9 16 15 C10.72 15 5.44 15 0 15 C0 10.05 0 5.1 0 0 Z " fill="#B7B7B7" transform="translate(19,35)"/>
<path d="M0 0 C5.61 0 11.22 0 17 0 C17 4.62 17 9.24 17 14 C11.39 14 5.78 14 0 14 C0 9.38 0 4.76 0 0 Z " fill="#929292" transform="translate(55,56)"/>
<path d="M0 0 C7.59 0 15.18 0 23 0 C23 3.3 23 6.6 23 10 C15.41 10 7.82 10 0 10 C0 6.7 0 3.4 0 0 Z " fill="#111111" transform="translate(51,15)"/>
<path d="M0 0 C0.33 0 0.66 0 1 0 C1 32.34 1 64.68 1 98 C0.67 98 0.34 98 0 98 C0 70.94 0 43.88 0 16 C-7.59 16 -15.18 16 -23 16 C-23 14.68 -23 13.36 -23 12 C-16.73 12 -10.46 12 -4 12 C-4 9.03 -4 6.06 -4 3 C-3.67 3.66 -3.34 4.32 -3 5 C-2.01 5 -1.02 5 0 5 C0 3.35 0 1.7 0 0 Z " fill="#DADADA" transform="translate(114,13)"/>
<path d="M0 0 C0.33 0 0.66 0 1 0 C1 32.34 1 64.68 1 98 C0.67 98 0.34 98 0 98 C-0.33 70.94 -0.66 43.88 -1 16 C-8.26 16 -15.52 16 -23 16 C-23.33 14.68 -23.66 13.36 -24 12 C-17.4 12 -10.8 12 -4 12 C-4 9.69 -4 7.38 -4 5 C-2.68 5 -1.36 5 0 5 C0 3.35 0 1.7 0 0 Z " fill="#A7A7A7" transform="translate(42,13)"/>
<path d="M0 0 C5.94 0 11.88 0 18 0 C18 3.63 18 7.26 18 11 C12.06 11 6.12 11 0 11 C0 7.37 0 3.74 0 0 Z " fill="#ADADAD" transform="translate(54,35)"/>
<path d="M0 0 C0.33 0.66 0.66 1.32 1 2 C8.59 2 16.18 2 24 2 C24 2.33 24 2.66 24 3 C16.41 3 8.82 3 1 3 C1 9.93 1 16.86 1 24 C8.59 24 16.18 24 24 24 C24 24.33 24 24.66 24 25 C16.41 25 8.82 25 1 25 C1 45.46 1 65.92 1 87 C-0.65 86.67 -2.3 86.34 -4 86 C-4 85.34 -4 84.68 -4 84 C-3.01 84.33 -2.02 84.66 -1 85 C-0.67 56.95 -0.34 28.9 0 0 Z " fill="#D5D5D5" transform="translate(50,29)"/>
<path d="M0 0 C0.33 0 0.66 0 1 0 C1 4.95 1 9.9 1 15 C-1.50497004 16.25248502 -3.20853274 16.11374406 -6.0078125 16.09765625 C-6.99394531 16.09443359 -7.98007813 16.09121094 -8.99609375 16.08789062 C-10.02863281 16.07951172 -11.06117187 16.07113281 -12.125 16.0625 C-13.68541016 16.05573242 -13.68541016 16.05573242 -15.27734375 16.04882812 C-17.85161962 16.03701952 -20.42578146 16.02055075 -23 16 C-23 14.68 -23 13.36 -23 12 C-16.73 12 -10.46 12 -4 12 C-4 9.03 -4 6.06 -4 3 C-3.67 3.66 -3.34 4.32 -3 5 C-2.01 5 -1.02 5 0 5 C0 3.35 0 1.7 0 0 Z " fill="#C2C2C2" transform="translate(78,13)"/>
<path d="M0 0 C0.99 0 1.98 0 3 0 C3 7.59 3 15.18 3 23 C-4.26 23 -11.52 23 -19 23 C-19 22.01 -19 21.02 -19 20 C-12.73 20 -6.46 20 0 20 C0 13.4 0 6.8 0 0 Z " fill="#BBBBBB" transform="translate(110,35)"/>
<path d="M0 0 C0.99 0 1.98 0 3 0 C3 6.93 3 13.86 3 21 C-4.26 21 -11.52 21 -19 21 C-19 20.34 -19 19.68 -19 19 C-19.66 18.67 -20.32 18.34 -21 18 C-14.07 18 -7.14 18 0 18 C0 12.06 0 6.12 0 0 Z " fill="#ACACAC" transform="translate(38,35)"/>
<path d="M0 0 C0.99 0 1.98 0 3 0 C3.02888514 3.14581423 3.04675923 6.29159469 3.0625 9.4375 C3.07087891 10.33533203 3.07925781 11.23316406 3.08789062 12.15820312 C3.09272461 13.43920898 3.09272461 13.43920898 3.09765625 14.74609375 C3.10551147 15.93223267 3.10551147 15.93223267 3.11352539 17.14233398 C3 19 3 19 2 20 C0.43827255 20.08685603 -1.12729344 20.10702219 -2.69140625 20.09765625 C-3.63564453 20.09443359 -4.57988281 20.09121094 -5.55273438 20.08789062 C-7.04256836 20.07532227 -7.04256836 20.07532227 -8.5625 20.0625 C-9.55958984 20.05798828 -10.55667969 20.05347656 -11.58398438 20.04882812 C-14.05604849 20.03700007 -16.52799518 20.02051849 -19 20 C-19 19.01 -19 18.02 -19 17 C-12.73 17 -6.46 17 0 17 C0 11.39 0 5.78 0 0 Z " fill="#C3C3C3" transform="translate(74,56)"/>
<path d="M0 0 C0.99 0 1.98 0 3 0 C3.02684679 2.64590014 3.04676357 5.29153096 3.0625 7.9375 C3.07087891 8.69224609 3.07925781 9.44699219 3.08789062 10.22460938 C3.09652441 12.14994313 3.05224333 14.07535581 3 16 C2 17 2 17 -0.04125977 17.11352539 C-0.91580811 17.10828857 -1.79035645 17.10305176 -2.69140625 17.09765625 C-3.63564453 17.09443359 -4.57988281 17.09121094 -5.55273438 17.08789062 C-7.04256836 17.07532227 -7.04256836 17.07532227 -8.5625 17.0625 C-9.55958984 17.05798828 -10.55667969 17.05347656 -11.58398438 17.04882812 C-14.05604849 17.03700007 -16.52799518 17.02051849 -19 17 C-19.33 16.01 -19.66 15.02 -20 14 C-13.4 14 -6.8 14 0 14 C0 9.38 0 4.76 0 0 Z " fill="#C1C1C1" transform="translate(74,35)"/>
<path d="M0 0 C-0.33 15.51 -0.66 31.02 -1 47 C-1.99 47.495 -1.99 47.495 -3 48 C-3 32.49 -3 16.98 -3 1 C-1 0 -1 0 0 0 Z " fill="#B5B5B5" transform="translate(51,16)"/>
<path d="M0 0 C7.26 0 14.52 0 22 0 C22 4.62 22 9.24 22 14 C21.01 14.495 21.01 14.495 20 15 C20 10.71 20 6.42 20 2 C14.06 2 8.12 2 2 2 C2 5.63 2 9.26 2 13 C1.01 13.495 1.01 13.495 0 14 C0 9.38 0 4.76 0 0 Z " fill="#030303" transform="translate(52,54)"/>
<path d="M0 0 C0.33 0.99 0.66 1.98 1 3 C1.66 3 2.32 3 3 3 C3 5.97 3 8.94 3 12 C-4.26 12 -11.52 12 -19 12 C-19 11.01 -19 10.02 -19 9 C-12.73 9 -6.46 9 0 9 C0 6.03 0 3.06 0 0 Z " fill="#B3B3B3" transform="translate(110,16)"/>
<path d="M0 0 C5.28 0 10.56 0 16 0 C16 3.3 16 6.6 16 10 C15.67 10 15.34 10 15 10 C14.67 7.69 14.34 5.38 14 3 C10.04 3 6.08 3 2 3 C2 3.99 2 4.98 2 6 C4.31 6 6.62 6 9 6 C9 6.33 9 6.66 9 7 C6.69 7 4.38 7 2 7 C2 7.99 2 8.98 2 10 C1.34 10 0.68 10 0 10 C0 6.7 0 3.4 0 0 Z " fill="#BDBDBD" transform="translate(55,56)"/>
<path d="M0 0 C4.95 0 9.9 0 15 0 C15 0.99 15 1.98 15 3 C10.71 3 6.42 3 2 3 C2 6.96 2 10.92 2 15 C1.34 15 0.68 15 0 15 C0 10.05 0 5.1 0 0 Z " fill="#020202" transform="translate(88,32)"/>
<path d="M0 0 C0.99 0 1.98 0 3 0 C3 6.6 3 13.2 3 20 C2.01 19.67 1.02 19.34 0 19 C0 12.73 0 6.46 0 0 Z " fill="#BBBBBA" transform="translate(38,35)"/>
<path d="M0 0 C5.28 0 10.56 0 16 0 C16 0.33 16 0.66 16 1 C18.475 1.495 18.475 1.495 21 2 C21 2.33 21 2.66 21 3 C14.07 3 7.14 3 0 3 C0 2.01 0 1.02 0 0 Z " fill="#CFCFCF" transform="translate(55,73)"/>
<path d="M0 0 C5.28 0 10.56 0 16 0 C16 1.65 16 3.3 16 5 C15.34 5 14.68 5 14 5 C14 4.01 14 3.02 14 2 C10.04 2 6.08 2 2 2 C2.33 3.32 2.66 4.64 3 6 C2.01 6.66 1.02 7.32 0 8 C0 5.36 0 2.72 0 0 Z " fill="#C5C5C5" transform="translate(55,35)"/>
<path d="M0 0 C0.33 0 0.66 0 1 0 C1 1.65 1 3.3 1 5 C-5.93 5 -12.86 5 -20 5 C-20 4.34 -20 3.68 -20 3 C-13.73 2.67 -7.46 2.34 -1 2 C-0.67 1.34 -0.34 0.68 0 0 Z " fill="#B3B3B3" transform="translate(111,52)"/>
<path d="M0 0 C4.29 0 8.58 0 13 0 C13 4.95 13 9.9 13 15 C12.67 15 12.34 15 12 15 C11.67 10.71 11.34 6.42 11 2 C7.7 2 4.4 2 1 2 C0.67 1.34 0.34 0.68 0 0 Z " fill="#C3C3C3" transform="translate(22,35)"/>
<path d="M0 0 C0.02725341 1.7290774 0.04650987 3.45828176 0.0625 5.1875 C0.07410156 6.15042969 0.08570313 7.11335938 0.09765625 8.10546875 C0.00486622 10.85576513 -0.37888315 13.32479591 -1 16 C-1.66 16 -2.32 16 -3 16 C-3 11.05 -3 6.1 -3 1 C-1 0 -1 0 0 0 Z " fill="#BEBEBE" transform="translate(51,16)"/>
<path d="M0 0 C3.96 0 7.92 0 12 0 C12 0.99 12 1.98 12 3 C8.04 3 4.08 3 0 3 C0 2.01 0 1.02 0 0 Z " fill="#1F1F1F" transform="translate(93,37)"/>
<path d="M0 0 C3.96 0 7.92 0 12 0 C12 0.99 12 1.98 12 3 C8.04 3 4.08 3 0 3 C0 2.01 0 1.02 0 0 Z " fill="#8F8F8F" transform="translate(57,37)"/>
<path d="M0 0 C3.96 0 7.92 0 12 0 C12 0.99 12 1.98 12 3 C8.04 3 4.08 3 0 3 C0 2.01 0 1.02 0 0 Z " fill="#1E1E1E" transform="translate(21,37)"/>
<path d="M0 0 C3.63 0 7.26 0 11 0 C11 4.62 11 9.24 11 14 C10.67 14 10.34 14 10 14 C9.67 10.04 9.34 6.08 9 2 C6.03 2 3.06 2 0 2 C0 1.34 0 0.68 0 0 Z " fill="#C6C6C6" transform="translate(96,35)"/>
<path d="M0 0 C2.64 0 5.28 0 8 0 C8 0.99 8 1.98 8 3 C5.36 3 2.72 3 0 3 C0 2.01 0 1.02 0 0 Z " fill="#303030" transform="translate(57,63)"/>
<path d="M0 0 C2.64 0 5.28 0 8 0 C8 0.99 8 1.98 8 3 C5.36 3 2.72 3 0 3 C0 2.01 0 1.02 0 0 Z " fill="#262626" transform="translate(93,42)"/>
<path d="M0 0 C0.66 0 1.32 0 2 0 C2 0.99 2 1.98 2 3 C4.31 3 6.62 3 9 3 C9 3.33 9 3.66 9 4 C6.69 4 4.38 4 2 4 C2 4.99 2 5.98 2 7 C1.34 7 0.68 7 0 7 C0 4.69 0 2.38 0 0 Z " fill="#C3C3C3" transform="translate(55,59)"/>
<path d="M0 0 C3.96 0 7.92 0 12 0 C11.01 0.495 11.01 0.495 10 1 C8.86649466 3.01669827 8.86649466 3.01669827 8 5 C7.67 4.01 7.34 3.02 7 2 C4.69 1.67 2.38 1.34 0 1 C0 0.67 0 0.34 0 0 Z " fill="#ADADAD" transform="translate(57,61)"/>
</svg>
