<?xml version="1.0" encoding="UTF-8"?>
<svg version="1.1" xmlns="http://www.w3.org/2000/svg" width="256" height="128">
<path d="M0 0 C16.83 0 33.66 0 51 0 C51 33.66 51 67.32 51 102 C50.01 102 49.02 102 48 102 C48 102.99 48 103.98 48 105 C47.01 105 46.02 105 45 105 C45 106.32 45 107.64 45 109 C27.84 109 10.68 109 -7 109 C-7 75.34 -7 41.68 -7 7 C-5.68 6.67 -4.36 6.34 -3 6 C-3 5.01 -3 4.02 -3 3 C-2.01 3 -1.02 3 0 3 C0 2.01 0 1.02 0 0 Z M10 19 C10 43.09 10 67.18 10 92 C17.26 92 24.52 92 32 92 C32 67.91 32 43.82 32 19 C24.74 19 17.48 19 10 19 Z " fill="#090909" transform="translate(76,8)"/>
<path d="M0 0 C16.83 0 33.66 0 51 0 C52.13788734 2.27577468 52.12342063 3.51033424 52.12025452 6.03689575 C52.12162918 6.88106049 52.12300385 7.72522522 52.12442017 8.5949707 C52.11902725 9.98679565 52.11902725 9.98679565 52.11352539 11.40673828 C52.11367142 12.38238739 52.11381744 13.3580365 52.1139679 14.36325073 C52.11326935 17.59896034 52.10547966 20.8346129 52.09765625 24.0703125 C52.09579186 26.30947844 52.09436806 28.54864479 52.09336853 30.78781128 C52.08954498 36.68972901 52.07971607 42.59162224 52.06866455 48.49353027 C52.05844694 54.51261056 52.05387016 60.5316948 52.04882812 66.55078125 C52.03809367 78.36719828 52.02101918 90.18359711 52 102 C50.68 102 49.36 102 48 102 C48 102.99 48 103.98 48 105 C47.01 105 46.02 105 45 105 C45 106.32 45 107.64 45 109 C28.17 109 11.34 109 -6 109 C-6 75.01 -6 41.02 -6 6 C-5.01 6 -4.02 6 -3 6 C-3 5.01 -3 4.02 -3 3 C-2.01 3 -1.02 3 0 3 C0 2.01 0 1.02 0 0 Z M10 19 C10 43.09 10 67.18 10 92 C17.26 92 24.52 92 32 92 C32 67.91 32 43.82 32 19 C24.74 19 17.48 19 10 19 Z " fill="#030303" transform="translate(143,8)"/>
<path d="M0 0 C4.29 0 8.58 0 13 0 C13 1.98 13 3.96 13 6 C13.66 6 14.32 6 15 6 C15.33 5.01 15.66 4.02 16 3 C24.25 3 32.5 3 41 3 C41 3.99 41 4.98 41 6 C41.99 6 42.98 6 44 6 C44 11.28 44 16.56 44 22 C42.02 22 40.04 22 38 22 C38 23.32 38 24.64 38 26 C29.75 26 21.5 26 13 26 C13 52.07 13 78.14 13 105 C10.69 105 8.38 105 6 105 C6 106.32 6 107.64 6 109 C1.71 109 -2.58 109 -7 109 C-7 76 -7 43 -7 9 C-6.01 9 -5.02 9 -4 9 C-4 7.02 -4 5.04 -4 3 C-2.68 3 -1.36 3 0 3 C0 2.01 0 1.02 0 0 Z " fill="#030303" transform="translate(22,8)"/>
<path d="M0 0 C4.29 0 8.58 0 13 0 C13 2.31 13 4.62 13 7 C19.27 7 25.54 7 32 7 C32 12.28 32 17.56 32 23 C30.02 22.67 28.04 22.34 26 22 C26 23.32 26 24.64 26 26 C22.7 26 19.4 26 16 26 C16 46.79 16 67.58 16 89 C16.99 89 17.98 89 19 89 C19 90.32 19 91.64 19 93 C20.98 93 22.96 93 25 93 C25 93.99 25 94.98 25 96 C27.31 96 29.62 96 32 96 C32 100.29 32 104.58 32 109 C26.72 109 21.44 109 16 109 C16 108.01 16 107.02 16 106 C14.02 106 12.04 106 10 106 C9.67 104.68 9.34 103.36 9 102 C8.01 102 7.02 102 6 102 C6 101.01 6 100.02 6 99 C5.01 99 4.02 99 3 99 C3 98.01 3 97.02 3 96 C2.01 96 1.02 96 0 96 C0 95.01 0 94.02 0 93 C-0.99 93 -1.98 93 -3 93 C-3 70.89 -3 48.78 -3 26 C-5.31 26 -7.62 26 -10 26 C-10 21.71 -10 17.42 -10 13 C-7.69 13 -5.38 13 -3 13 C-3 11.02 -3 9.04 -3 7 C-2.01 7 -1.02 7 0 7 C0 4.69 0 2.38 0 0 Z " fill="#070707" transform="translate(210,11)"/>
<path d="M0 0 C16.83 0 33.66 0 51 0 C52.13788734 2.27577468 52.12342063 3.51033424 52.12025452 6.03689575 C52.12162918 6.88106049 52.12300385 7.72522522 52.12442017 8.5949707 C52.11902725 9.98679565 52.11902725 9.98679565 52.11352539 11.40673828 C52.11367142 12.38238739 52.11381744 13.3580365 52.1139679 14.36325073 C52.11326935 17.59896034 52.10547966 20.8346129 52.09765625 24.0703125 C52.09579186 26.30947844 52.09436806 28.54864479 52.09336853 30.78781128 C52.08954498 36.68972901 52.07971607 42.59162224 52.06866455 48.49353027 C52.05844694 54.51261056 52.05387016 60.5316948 52.04882812 66.55078125 C52.03809367 78.36719828 52.02101918 90.18359711 52 102 C50.68 102 49.36 102 48 102 C48 102.99 48 103.98 48 105 C47.01 105 46.02 105 45 105 C45 72.66 45 40.32 45 7 C28.17 7 11.34 7 -6 7 C-5.01 6.67 -4.02 6.34 -3 6 C-3 5.01 -3 4.02 -3 3 C-2.01 3 -1.02 3 0 3 C0 2.01 0 1.02 0 0 Z " fill="#BABABA" transform="translate(143,8)"/>
<path d="M0 0 C16.83 0 33.66 0 51 0 C51 33.66 51 67.32 51 102 C50.01 102 49.02 102 48 102 C48 102.99 48 103.98 48 105 C47.01 105 46.02 105 45 105 C45 72.66 45 40.32 45 7 C28.17 7 11.34 7 -6 7 C-5.01 6.67 -4.02 6.34 -3 6 C-3 5.01 -3 4.02 -3 3 C-2.01 3 -1.02 3 0 3 C0 2.01 0 1.02 0 0 Z " fill="#B5B5B5" transform="translate(76,8)"/>
<path d="M0 0 C9.57 0 19.14 0 29 0 C29 0.33 29 0.66 29 1 C20.75 1 12.5 1 4 1 C4 27.07 4 53.14 4 80 C1.69 80 -0.62 80 -3 80 C-3 54.92 -3 29.84 -3 4 C-2.01 4 -1.02 4 0 4 C0 2.68 0 1.36 0 0 Z " fill="#BEBEBE" transform="translate(31,33)"/>
<path d="M0 0 C4.29 0 8.58 0 13 0 C13 1.98 13 3.96 13 6 C13.66 6 14.32 6 15 6 C15.33 5.01 15.66 4.02 16 3 C24.25 3 32.5 3 41 3 C41 3.99 41 4.98 41 6 C41.99 6 42.98 6 44 6 C44 11.28 44 16.56 44 22 C42.02 22 40.04 22 38 22 C38 18.04 38 14.08 38 10 C29.42 10 20.84 10 12 10 C12 11.98 12 13.96 12 16 C10.02 16 8.04 16 6 16 C6 13.03 6 10.06 6 7 C2.7 7 -0.6 7 -4 7 C-4 5.68 -4 4.36 -4 3 C-2.68 3 -1.36 3 0 3 C0 2.01 0 1.02 0 0 Z " fill="#B7B7B7" transform="translate(22,8)"/>
<path d="M0 0 C1.32 0 2.64 0 4 0 C4 24.09 4 48.18 4 73 C11.26 73 18.52 73 26 73 C26 74.32 26 75.64 26 77 C17.42 77 8.84 77 0 77 C0 51.59 0 26.18 0 0 Z " fill="#AEAEAE" transform="translate(149,27)"/>
<path d="M0 0 C1.32 0 2.64 0 4 0 C4 24.09 4 48.18 4 73 C11.26 73 18.52 73 26 73 C26 74.32 26 75.64 26 77 C17.42 77 8.84 77 0 77 C0 51.59 0 26.18 0 0 Z " fill="#B8B8B8" transform="translate(82,27)"/>
<path d="M0 0 C1.98 0 3.96 0 6 0 C6 20.79 6 41.58 6 63 C5.01 63 4.02 63 3 63 C3 62.01 3 61.02 3 60 C2.01 60 1.02 60 0 60 C0 40.2 0 20.4 0 0 Z " fill="#B8B8B8" transform="translate(220,37)"/>
<path d="M0 0 C4.29 0 8.58 0 13 0 C13 2.31 13 4.62 13 7 C19.27 7 25.54 7 32 7 C32 12.28 32 17.56 32 23 C30.02 22.67 28.04 22.34 26 22 C25.67 23.32 25.34 24.64 25 26 C25 21.71 25 17.42 25 13 C20.05 13 15.1 13 10 13 C10 10.03 10 7.06 10 4 C6.7 4 3.4 4 0 4 C0 2.68 0 1.36 0 0 Z " fill="#B8B8B8" transform="translate(210,11)"/>
<path d="M0 0 C4.29 0 8.58 0 13 0 C11.515 1.485 11.515 1.485 10 3 C10 3.33 10 3.66 10 4 C6.7 4 3.4 4 0 4 C0 2.68 0 1.36 0 0 Z " fill="#A8A8A8" transform="translate(210,11)"/>
</svg>
