<?xml version="1.0" encoding="UTF-8"?>
<svg version="1.1" xmlns="http://www.w3.org/2000/svg" width="128" height="128">
<path d="M0 0 C20.79 0 41.58 0 63 0 C63.495 1.485 63.495 1.485 64 3 C64.99 3 65.98 3 67 3 C67 3.99 67 4.98 67 6 C67.66 6 68.32 6 69 6 C69 6.66 69 7.32 69 8 C70.0828125 8.3403125 70.0828125 8.3403125 71.1875 8.6875 C74.58457087 10.27279974 76.5749552 12.15923323 79 15 C79 15.99 79 16.98 79 18 C79.99 18 80.98 18 82 18 C82 18.99 82 19.98 82 21 C82.66 21 83.32 21 84 21 C84.495 22.485 84.495 22.485 85 24 C85.99 24.66 86.98 25.32 88 26 C88.546875 28.49609375 88.546875 28.49609375 88.75 31.4375 C88.86601562 32.88962891 88.86601562 32.88962891 88.984375 34.37109375 C89 37 89 37 88 40 C89.98 39.01 91.96 38.02 94 37 C94 36.34 94 35.68 94 35 C97.96 35 101.92 35 106 35 C106 35.99 106 36.98 106 38 C106.598125 38.061875 107.19625 38.12375 107.8125 38.1875 C110.88791343 39.32979642 111.45477272 41.17828061 113 44 C113.78117187 44.67869141 113.78117187 44.67869141 114.578125 45.37109375 C116.48038476 47.55033089 116.31120294 48.8423324 116.1875 51.6875 C116.14689453 52.89986328 116.14689453 52.89986328 116.10546875 54.13671875 C116.07066406 54.75160156 116.03585938 55.36648437 116 56 C115.01 56 114.02 56 113 56 C112.34 57.65 111.68 59.3 111 61 C110.01 61 109.02 61 108 61 C108 61.66 108 62.32 108 63 C107.34 63 106.68 63 106 63 C106 63.99 106 64.98 106 66 C105.01 66 104.02 66 103 66 C103 66.66 103 67.32 103 68 C102.34 68 101.68 68 101 68 C101 68.99 101 69.98 101 71 C100.34 71 99.68 71 99 71 C99 71.66 99 72.32 99 73 C97.02 73.99 97.02 73.99 95 75 C95 75.66 95 76.32 95 77 C94.01 77 93.02 77 92 77 C92 77.66 92 78.32 92 79 C91.34 79 90.68 79 90 79 C90 79.99 90 80.98 90 82 C87.5 84.6875 87.5 84.6875 85 87 C86.485 87.99 86.485 87.99 88 89 C88.44824219 91.87329102 88.44824219 91.87329102 88.546875 95.50390625 C88.60681641 97.45006836 88.60681641 97.45006836 88.66796875 99.43554688 C88.68134277 100.11222412 88.6947168 100.78890137 88.70849609 101.48608398 C88.74991994 103.55849482 88.81251199 105.62942518 88.87890625 107.70117188 C89.07536589 115.01747445 89.07536589 115.01747445 89 118 C87.24560837 119.75439163 84.94502544 119.11982963 82.60829163 119.12442017 C81.8357756 119.12082489 81.06325958 119.11722961 80.26733398 119.11352539 C79.05279541 119.11374443 79.05279541 119.11374443 77.8137207 119.1139679 C75.12448492 119.11326854 72.43531751 119.1054751 69.74609375 119.09765625 C67.88664284 119.09579215 66.02719144 119.09436821 64.16773987 119.09336853 C59.26370904 119.08954271 54.35970764 119.07971188 49.45568848 119.06866455 C44.45548908 119.05845181 39.45528494 119.05387121 34.45507812 119.04882812 C24.63670579 119.03808967 14.81835534 119.02101248 5 119 C5 117.35 5 115.7 5 114 C3.35 114 1.7 114 0 114 C0 76.38 0 38.76 0 0 Z M10 10 C10 42.34 10 74.68 10 108 C32.77 108 55.54 108 79 108 C79 102.72 79 97.44 79 92 C77.02 92.99 77.02 92.99 75 94 C75 94.99 75 95.98 75 97 C74.38125 97.144375 73.7625 97.28875 73.125 97.4375 C70.96741678 97.93152225 70.96741678 97.93152225 69 99 C69 99.99 69 100.98 69 102 C65.7 102 62.4 102 59 102 C59 102.66 59 103.32 59 104 C55.7 104 52.4 104 49 104 C49 103.01 49 102.02 49 101 C48.01 100.67 47.02 100.34 46 100 C45.67 98.35 45.34 96.7 45 95 C45.66 95 46.32 95 47 95 C47.8723412 92.00519083 48.10829766 89.36424089 48.0625 86.25 C48.05347656 85.45078125 48.04445312 84.6515625 48.03515625 83.828125 C48.02355469 83.22484375 48.01195312 82.6215625 48 82 C48.99 82 49.98 82 51 82 C51 81.01 51 80.02 51 79 C51.66 79 52.32 79 53 79 C55.18739868 77.22931824 55.18739868 77.22931824 57 75 C57 74.01 57 73.02 57 72 C58.65 71.34 60.3 70.68 62 70 C62 69.01 62 68.02 62 67 C62.556875 66.95875 63.11375 66.9175 63.6875 66.875 C67.17293296 65.55618753 68.72741349 62.8706356 71 60 C71.66 59.67 72.32 59.34 73 59 C73 58.01 73 57.02 73 56 C73.61875 55.938125 74.2375 55.87625 74.875 55.8125 C77.27761141 55.171081 77.27761141 55.171081 78.25 52.4375 C78.62125 51.2309375 78.62125 51.2309375 79 50 C79.99 50 80.98 50 82 50 C81.67 49.01 81.34 48.02 81 47 C80.34 47 79.68 47 79 47 C79 41.39 79 35.78 79 30 C73.72 30 68.44 30 63 30 C63 28.68 63 27.36 63 26 C61.35 26 59.7 26 58 26 C58 20.72 58 15.44 58 10 C42.16 10 26.32 10 10 10 Z " fill="#181818" transform="translate(6,5)"/>
<path d="M0 0 C1.32 0.66 2.64 1.32 4 2 C4.64453125 4.49609375 4.64453125 4.49609375 4.8125 7.4375 C4.91498047 8.88962891 4.91498047 8.88962891 5.01953125 10.37109375 C5 13 5 13 4 16 C5.98 15.01 7.96 14.02 10 13 C10 12.34 10 11.68 10 11 C13.96 11 17.92 11 22 11 C22 11.99 22 12.98 22 14 C22.598125 14.061875 23.19625 14.12375 23.8125 14.1875 C26.88791343 15.32979642 27.45477272 17.17828061 29 20 C29.78117187 20.67869141 29.78117187 20.67869141 30.578125 21.37109375 C32.48038476 23.55033089 32.31120294 24.8423324 32.1875 27.6875 C32.14689453 28.89986328 32.14689453 28.89986328 32.10546875 30.13671875 C32.07066406 30.75160156 32.03585938 31.36648437 32 32 C31.01 32 30.02 32 29 32 C28.34 33.65 27.68 35.3 27 37 C26.01 37 25.02 37 24 37 C24 37.66 24 38.32 24 39 C23.34 39 22.68 39 22 39 C22 39.99 22 40.98 22 42 C21.01 42 20.02 42 19 42 C19 42.66 19 43.32 19 44 C18.34 44 17.68 44 17 44 C17 44.99 17 45.98 17 47 C16.34 47 15.68 47 15 47 C15 47.66 15 48.32 15 49 C13.68 49.66 12.36 50.32 11 51 C11 51.66 11 52.32 11 53 C10.01 53 9.02 53 8 53 C8 53.66 8 54.32 8 55 C7.34 55 6.68 55 6 55 C6 55.99 6 56.98 6 58 C1.77142857 62 1.77142857 62 -2 62 C-2 62.99 -2 63.98 -2 65 C-2.99 65 -3.98 65 -5 65 C-5.185625 65.9590625 -5.185625 65.9590625 -5.375 66.9375 C-5.58125 67.618125 -5.7875 68.29875 -6 69 C-6.99 69.495 -6.99 69.495 -8 70 C-8.33 70.99 -8.66 71.98 -9 73 C-12 75 -12 75 -15 75 C-15 75.99 -15 76.98 -15 78 C-18.3 78 -21.6 78 -25 78 C-25 78.66 -25 79.32 -25 80 C-28.3 80 -31.6 80 -35 80 C-35 79.01 -35 78.02 -35 77 C-36.32 76.67 -37.64 76.34 -39 76 C-39 74.35 -39 72.7 -39 71 C-38.34 71 -37.68 71 -37 71 C-36.67 66.71 -36.34 62.42 -36 58 C-35.01 58 -34.02 58 -33 58 C-33 57.01 -33 56.02 -33 55 C-32.34 55 -31.68 55 -31 55 C-30.34 53.68 -29.68 52.36 -29 51 C-28.34 51 -27.68 51 -27 51 C-27 50.01 -27 49.02 -27 48 C-25.35 47.34 -23.7 46.68 -22 46 C-22 45.01 -22 44.02 -22 43 C-21.38125 42.9175 -20.7625 42.835 -20.125 42.75 C-17.81562433 42.18741541 -17.81562433 42.18741541 -16.75 39.9375 C-16.5025 39.298125 -16.255 38.65875 -16 38 C-15.34 38 -14.68 38 -14 38 C-13.67 37.01 -13.34 36.02 -13 35 C-12.34 35 -11.68 35 -11 35 C-11 34.01 -11 33.02 -11 32 C-10.38125 31.938125 -9.7625 31.87625 -9.125 31.8125 C-6.72238859 31.171081 -6.72238859 31.171081 -5.75 28.4375 C-5.5025 27.633125 -5.255 26.82875 -5 26 C-4.01 26 -3.02 26 -2 26 C-2.99 24.68 -3.98 23.36 -5 22 C-4.34 22 -3.68 22 -3 22 C-3 21.01 -3 20.02 -3 19 C-2.01 19 -1.02 19 0 19 C0 12.73 0 6.46 0 0 Z " fill="#131313" transform="translate(90,29)"/>
<path d="M0 0 C17.49 0 34.98 0 53 0 C53 6.6 53 13.2 53 20 C52.67 20 52.34 20 52 20 C52 14.72 52 9.44 52 4 C36.16 4 20.32 4 4 4 C4 36.34 4 68.68 4 102 C2.68 102 1.36 102 0 102 C0 68.34 0 34.68 0 0 Z " fill="#B9B9B9" transform="translate(12,11)"/>
<path d="M0 0 C1.32 0 2.64 0 4 0 C4.16728213 4.11149887 4.32787468 8.22319806 4.48217773 12.33520508 C4.53566026 13.73501681 4.59099434 15.13475904 4.64819336 16.53442383 C4.72992949 18.5422896 4.80453025 20.55044187 4.87890625 22.55859375 C4.94960327 24.37315063 4.94960327 24.37315063 5.02172852 26.22436523 C5 29 5 29 4 30 C1.41360962 30.09507821 -1.1459856 30.12556376 -3.73266602 30.11352539 C-4.94720459 30.11374443 -4.94720459 30.11374443 -6.1862793 30.1139679 C-8.87551508 30.11326854 -11.56468249 30.1054751 -14.25390625 30.09765625 C-16.11335716 30.09579215 -17.97280856 30.09436821 -19.83226013 30.09336853 C-24.73629096 30.08954271 -29.64029236 30.07971188 -34.54431152 30.06866455 C-39.54451092 30.05845181 -44.54471506 30.05387121 -49.54492188 30.04882812 C-59.36329421 30.03808967 -69.18164466 30.02101248 -79 30 C-79 28.35 -79 26.7 -79 25 C-52.93 25 -26.86 25 0 25 C0 16.75 0 8.5 0 0 Z " fill="#B5B5B5" transform="translate(90,94)"/>
<path d="M0 0 C18.48 0 36.96 0 56 0 C56.495 1.98 56.495 1.98 57 4 C57.66 4 58.32 4 59 4 C59 5.65 59 7.3 59 9 C40.85 9 22.7 9 4 9 C3.67 8.01 3.34 7.02 3 6 C2.01 6 1.02 6 0 6 C0 4.02 0 2.04 0 0 Z " fill="#202121" transform="translate(20,52)"/>
<path d="M0 0 C1.53102104 0.0001133 1.53102104 0.0001133 3.0929718 0.00022888 C4.72760628 0.00797081 4.72760628 0.00797081 6.39526367 0.01586914 C7.52018723 0.01728409 8.64511078 0.01869904 9.80412292 0.02015686 C13.39052001 0.02574608 16.97685426 0.03829667 20.56323242 0.05102539 C22.99747631 0.05604178 25.43172118 0.06060445 27.8659668 0.06469727 C33.82757671 0.07571199 39.78915008 0.09243945 45.75073242 0.11352539 C46.24573242 2.58852539 46.24573242 2.58852539 46.75073242 5.11352539 C47.41073242 5.11352539 48.07073242 5.11352539 48.75073242 5.11352539 C48.75073242 6.43352539 48.75073242 7.75352539 48.75073242 9.11352539 C30.27073242 9.11352539 11.79073242 9.11352539 -7.24926758 9.11352539 C-7.24926758 8.12352539 -7.24926758 7.13352539 -7.24926758 6.11352539 C-8.23926758 6.11352539 -9.22926758 6.11352539 -10.24926758 6.11352539 C-10.24926758 4.46352539 -10.24926758 2.81352539 -10.24926758 1.11352539 C-6.76880661 0.32365522 -3.56605904 -0.00884878 0 0 Z " fill="#212121" transform="translate(30.249267578125,38.886474609375)"/>
<path d="M0 0 C4 2 4 2 5 4 C5.06950541 5.54023996 5.08452357 7.08334988 5.0625 8.625 C5.05347656 9.44226562 5.04445313 10.25953125 5.03515625 11.1015625 C5.02355469 11.72804688 5.01195313 12.35453125 5 13 C4.01 13 3.02 13 2 13 C1.34 14.65 0.68 16.3 0 18 C-0.99 18 -1.98 18 -3 18 C-3 18.66 -3 19.32 -3 20 C-3.66 20 -4.32 20 -5 20 C-5 20.99 -5 21.98 -5 23 C-5.99 23 -6.98 23 -8 23 C-8 23.66 -8 24.32 -8 25 C-8.66 25 -9.32 25 -10 25 C-10 25.99 -10 26.98 -10 28 C-10.66 28 -11.32 28 -12 28 C-12 28.66 -12 29.32 -12 30 C-13.98 30.99 -13.98 30.99 -16 32 C-16 32.66 -16 33.32 -16 34 C-16.99 34 -17.98 34 -19 34 C-19 34.66 -19 35.32 -19 36 C-19.66 36 -20.32 36 -21 36 C-21 36.99 -21 37.98 -21 39 C-25.22857143 43 -25.22857143 43 -29 43 C-29 43.99 -29 44.98 -29 46 C-29.99 46 -30.98 46 -32 46 C-32.185625 46.9590625 -32.185625 46.9590625 -32.375 47.9375 C-32.58125 48.618125 -32.7875 49.29875 -33 50 C-33.99 50.495 -33.99 50.495 -35 51 C-35.33 51.99 -35.66 52.98 -36 54 C-39 56 -39 56 -42 56 C-42 56.99 -42 57.98 -42 59 C-45.3 59 -48.6 59 -52 59 C-52 59.66 -52 60.32 -52 61 C-55.3 61 -58.6 61 -62 61 C-62 60.01 -62 59.02 -62 58 C-62.99 57.67 -63.98 57.34 -65 57 C-61.7 57 -58.4 57 -55 57 C-55 56.34 -55 55.68 -55 55 C-51.7 55 -48.4 55 -45 55 C-45 54.01 -45 53.02 -45 52 C-42.525 51.505 -42.525 51.505 -40 51 C-40 50.01 -40 49.02 -40 48 C-39.01 48 -38.02 48 -37 48 C-37 47.01 -37 46.02 -37 45 C-36.34 45 -35.68 45 -35 45 C-35 44.34 -35 43.68 -35 43 C-34.01 43 -33.02 43 -32 43 C-31.34 41.35 -30.68 39.7 -30 38 C-29.34 38 -28.68 38 -28 38 C-28 37.34 -28 36.68 -28 36 C-26.6875 34.375 -26.6875 34.375 -25 33 C-24.01 33 -23.02 33 -22 33 C-22 32.34 -22 31.68 -22 31 C-21.34 31 -20.68 31 -20 31 C-20 30.01 -20 29.02 -20 28 C-19.01 28 -18.02 28 -17 28 C-17 27.01 -17 26.02 -17 25 C-16.34 25 -15.68 25 -15 25 C-15 24.34 -15 23.68 -15 23 C-13.625 21.375 -13.625 21.375 -12 20 C-11.34 20 -10.68 20 -10 20 C-10 19.34 -10 18.68 -10 18 C-9.34 18 -8.68 18 -8 18 C-8 17.34 -8 16.68 -8 16 C-6.68 15.67 -5.36 15.34 -4 15 C-4 14.01 -4 13.02 -4 12 C-3.34 12 -2.68 12 -2 12 C-2 11.34 -2 10.68 -2 10 C-1.34 10 -0.68 10 0 10 C0 6.7 0 3.4 0 0 Z " fill="#BFBFBF" transform="translate(117,48)"/>
<path d="M0 0 C14.85 0 29.7 0 45 0 C45 0.99 45 1.98 45 3 C45.99 3.33 46.98 3.66 48 4 C47.67 5.32 47.34 6.64 47 8 C32.48 8 17.96 8 3 8 C3 7.01 3 6.02 3 5 C2.01 5 1.02 5 0 5 C0 3.35 0 1.7 0 0 Z " fill="#1A1A1A" transform="translate(20,65)"/>
<path d="M0 0 C10.56 0 21.12 0 32 0 C32 1.32 32 2.64 32 4 C32.66 4 33.32 4 34 4 C34 5.65 34 7.3 34 9 C24.1 9 14.2 9 4 9 C3.67 8.01 3.34 7.02 3 6 C2.01 6 1.02 6 0 6 C0 4.02 0 2.04 0 0 Z " fill="#B3B3B3" transform="translate(20,27)"/>
<path d="M0 0 C10.23 0 20.46 0 31 0 C31.33 1.32 31.66 2.64 32 4 C32.99 4 33.98 4 35 4 C35 5.32 35 6.64 35 8 C31.35471652 8.19937616 27.70877772 8.38229958 24.0625 8.5625 C22.53012695 8.64661133 22.53012695 8.64661133 20.96679688 8.73242188 C14.82995694 9.02651964 9.08581583 8.85671026 3 8 C3 7.01 3 6.02 3 5 C2.01 5 1.02 5 0 5 C0 3.35 0 1.7 0 0 Z " fill="#202020" transform="translate(20,77)"/>
<path d="M0 0 C1.32 0 2.64 0 4 0 C4.16728213 4.11149887 4.32787468 8.22319806 4.48217773 12.33520508 C4.53566026 13.73501681 4.59099434 15.13475904 4.64819336 16.53442383 C4.72992949 18.5422896 4.80453025 20.55044187 4.87890625 22.55859375 C4.94960327 24.37315063 4.94960327 24.37315063 5.02172852 26.22436523 C5 29 5 29 4 30 C1.41360962 30.09507821 -1.1459856 30.12556376 -3.73266602 30.11352539 C-4.94720459 30.11374443 -4.94720459 30.11374443 -6.1862793 30.1139679 C-8.87551508 30.11326854 -11.56468249 30.1054751 -14.25390625 30.09765625 C-16.11335716 30.09579215 -17.97280856 30.09436821 -19.83226013 30.09336853 C-24.73629096 30.08954271 -29.64029236 30.07971188 -34.54431152 30.06866455 C-39.54451092 30.05845181 -44.54471506 30.05387121 -49.54492188 30.04882812 C-59.36329421 30.03808967 -69.18164466 30.02101248 -79 30 C-79 29.67 -79 29.34 -79 29 C-44.35 28.505 -44.35 28.505 -9 28 C-9 27.01 -9 26.02 -9 25 C-6.03 25 -3.06 25 0 25 C0 16.75 0 8.5 0 0 Z " fill="#C8C8C9" transform="translate(90,94)"/>
<path d="M0 0 C8.25 0 16.5 0 25 0 C25 1.32 25 2.64 25 4 C26.32 4 27.64 4 29 4 C29 5.65 29 7.3 29 9 C20.75 9 12.5 9 4 9 C3.67 8.34 3.34 7.68 3 7 C2.01 6.67 1.02 6.34 0 6 C0 4.02 0 2.04 0 0 Z " fill="#2C2C2C" transform="translate(20,89)"/>
<path d="M0 0 C0.495 1.485 0.495 1.485 1 3 C1.66 3 2.32 3 3 3 C3 4.65 3 6.3 3 8 C-15.15 8 -33.3 8 -52 8 C-52.33 7.01 -52.66 6.02 -53 5 C-53.99 4.67 -54.98 4.34 -56 4 C-37.52 4 -19.04 4 0 4 C0 2.68 0 1.36 0 0 Z " fill="#BDBDBD" transform="translate(76,53)"/>
<path d="M0 0 C0.98484375 0.01804688 1.9696875 0.03609375 2.984375 0.0546875 C4.10585937 0.08949219 4.10585937 0.08949219 5.25 0.125 C5.745 2.6 5.745 2.6 6.25 5.125 C6.91 5.125 7.57 5.125 8.25 5.125 C8.25 6.445 8.25 7.765 8.25 9.125 C-10.23 9.125 -28.71 9.125 -47.75 9.125 C-47.75 8.135 -47.75 7.145 -47.75 6.125 C-30.26 6.125 -12.77 6.125 5.25 6.125 C5.25 4.805 5.25 3.485 5.25 2.125 C0.3 2.125 -4.65 2.125 -9.75 2.125 C-5.76219998 0.13109999 -4.27852428 -0.10186963 0 0 Z " fill="#B5B5B5" transform="translate(70.75,38.875)"/>
<path d="M0 0 C0 1.32 0 2.64 0 4 C-0.99 4 -1.98 4 -3 4 C-3.66 5.32 -4.32 6.64 -5 8 C-5.66 8 -6.32 8 -7 8 C-7.66 9.32 -8.32 10.64 -9 12 C-9.66 12 -10.32 12 -11 12 C-11.66 13.32 -12.32 14.64 -13 16 C-13.66 16 -14.32 16 -15 16 C-15.66 17.32 -16.32 18.64 -17 20 C-17.66 20 -18.32 20 -19 20 C-19.66 21.32 -20.32 22.64 -21 24 C-21.66 24 -22.32 24 -23 24 C-23.04125 24.556875 -23.0825 25.11375 -23.125 25.6875 C-24.50957366 29.34673038 -26.80972767 30.76680937 -30 33 C-30.99 32.67 -31.98 32.34 -33 32 C-32.42105051 28.88168637 -31.60337223 27.22418809 -29.37963867 24.97558594 C-28.55824654 24.13516754 -28.55824654 24.13516754 -27.72026062 23.277771 C-27.1255043 22.68595032 -26.53074799 22.09412964 -25.91796875 21.484375 C-25.30738113 20.86854553 -24.69679352 20.25271606 -24.06770325 19.6182251 C-22.77605232 18.32015696 -21.48051318 17.02594787 -20.18139648 15.73535156 C-18.19302725 13.75550356 -16.22403465 11.7577127 -14.25585938 9.7578125 C-12.99852746 8.49886881 -11.74009996 7.24101814 -10.48046875 5.984375 C-9.89178513 5.3844574 -9.3031015 4.78453979 -8.69657898 4.16644287 C-4.45876982 0 -4.45876982 0 0 0 Z " fill="#BBBBB9" transform="translate(104,60)"/>
<path d="M0 0 C0.66 0 1.32 0 2 0 C2 0.66 2 1.32 2 2 C2.66 2.33 3.32 2.66 4 3 C0.51961567 7.30904726 -3.07728974 11.01233749 -7.34765625 14.53515625 C-9.25141992 16.14903343 -9.25141992 16.14903343 -11.5 19 C-13.91503394 21.89804073 -16.39944186 24.093658 -19.29296875 26.4765625 C-21.00111064 28.00099119 -22.38871237 29.58581554 -23.8125 31.375 C-24.534375 32.24125 -25.25625 33.1075 -26 34 C-26.66 34 -27.32 34 -28 34 C-28 33.34 -28 32.68 -28 32 C-28.66 32 -29.32 32 -30 32 C-30 31.34 -30 30.68 -30 30 C-28.64453125 28.703125 -28.64453125 28.703125 -26.8125 27.25 C-24.31341917 25.19609956 -22.19512386 23.16157864 -20.1875 20.625 C-19.1046875 19.325625 -19.1046875 19.325625 -18 18 C-17.34 18 -16.68 18 -16 18 C-16 17.34 -16 16.68 -16 16 C-15.34 16 -14.68 16 -14 16 C-14 15.34 -14 14.68 -14 14 C-9.69767442 9.23255814 -9.69767442 9.23255814 -6 8 C-6 7.34 -6 6.68 -6 6 C-4.37550757 4.29220027 -2.70779973 2.62449243 -1 1 C-0.67 0.67 -0.34 0.34 0 0 Z " fill="#B6B6B5" transform="translate(95,54)"/>
<path d="M0 0 C0.99 0.33 1.98 0.66 3 1 C2.34 1 1.68 1 1 1 C1.04125 1.9075 1.0825 2.815 1.125 3.75 C1.00279905 6.92722465 0.75602869 8.41216824 -1 11 C-4 13 -4 13 -7 13 C-7 13.99 -7 14.98 -7 16 C-10.3 16 -13.6 16 -17 16 C-17 16.66 -17 17.32 -17 18 C-20.3 18 -23.6 18 -27 18 C-27 17.01 -27 16.02 -27 15 C-27.99 14.67 -28.98 14.34 -30 14 C-26.7 14 -23.4 14 -20 14 C-20 13.34 -20 12.68 -20 12 C-16.7 12 -13.4 12 -10 12 C-10 11.01 -10 10.02 -10 9 C-8.35 8.67 -6.7 8.34 -5 8 C-5 7.01 -5 6.02 -5 5 C-4.01 5 -3.02 5 -2 5 C-2 4.01 -2 3.02 -2 2 C-1.34 2 -0.68 2 0 2 C0 1.34 0 0.68 0 0 Z " fill="#B7B7B7" transform="translate(82,91)"/>
<path d="M0 0 C0.495 1.485 0.495 1.485 1 3 C1.99 3.33 2.98 3.66 4 4 C3.67 5.32 3.34 6.64 3 8 C-11.52 8 -26.04 8 -41 8 C-41 7.01 -41 6.02 -41 5 C-27.47 5 -13.94 5 0 5 C0 3.35 0 1.7 0 0 Z " fill="#BCBCBC" transform="translate(64,65)"/>
<path d="M0 0 C10.23 0 20.46 0 31 0 C31 1.32 31 2.64 31 4 C20.77 4 10.54 4 0 4 C0 2.68 0 1.36 0 0 Z " fill="#020202" transform="translate(20,28)"/>
<path d="M0 0 C2.16874252 0.50603992 3.99967627 0.99983813 6 2 C6 2.99 6 3.98 6 5 C5.34 5 4.68 5 4 5 C4 5.66 4 6.32 4 7 C-0.30232558 11.76744186 -0.30232558 11.76744186 -4 13 C-4 13.66 -4 14.32 -4 15 C-4.66 15 -5.32 15 -6 15 C-6 15.66 -6 16.32 -6 17 C-7.32 16.67 -8.64 16.34 -10 16 C-10 15.34 -10 14.68 -10 14 C-10.66 13.67 -11.32 13.34 -12 13 C-11.01 12.67 -10.02 12.34 -9 12 C-8.67 11.01 -8.34 10.02 -8 9 C-7.34 9 -6.68 9 -6 9 C-6 8.01 -6 7.02 -6 6 C-5.38125 5.938125 -4.7625 5.87625 -4.125 5.8125 C-1.72238859 5.171081 -1.72238859 5.171081 -0.75 2.4375 C-0.37875 1.2309375 -0.37875 1.2309375 0 0 Z " fill="#212121" transform="translate(85,55)"/>
<path d="M0 0 C1.32 0.66 2.64 1.32 4 2 C4.64453125 4.49609375 4.64453125 4.49609375 4.8125 7.4375 C4.88082031 8.40558594 4.94914062 9.37367187 5.01953125 10.37109375 C5 13 5 13 4 16 C4.66 16 5.32 16 6 16 C6 16.99 6 17.98 6 19 C5.01 19 4.02 19 3 19 C3 19.99 3 20.98 3 22 C2.34 22 1.68 22 1 22 C1 22.66 1 23.32 1 24 C0.34 24 -0.32 24 -1 24 C-1.33 24.66 -1.66 25.32 -2 26 C-2.99 24.68 -3.98 23.36 -5 22 C-4.34 22 -3.68 22 -3 22 C-3 21.01 -3 20.02 -3 19 C-2.01 19 -1.02 19 0 19 C0 12.73 0 6.46 0 0 Z " fill="#C5C5C5" transform="translate(90,29)"/>
<path d="M0 0 C0 1.65 0 3.3 0 5 C-8.25 5 -16.5 5 -25 5 C-25.33 4.34 -25.66 3.68 -26 3 C-26.99 2.34 -27.98 1.68 -29 1 C-24.91671948 0.8320226 -20.83336765 0.66584479 -16.75 0.5 C-15.59113281 0.45230469 -14.43226562 0.40460938 -13.23828125 0.35546875 C-12.12324219 0.31035156 -11.00820313 0.26523438 -9.859375 0.21875 C-8.31975098 0.1559082 -8.31975098 0.1559082 -6.74902344 0.09179688 C-4.5003942 0.01670943 -2.24988257 0 0 0 Z " fill="#B6B6B6" transform="translate(49,93)"/>
<path d="M0 0 C0.33 0.66 0.66 1.32 1 2 C1.99 2 2.98 2 4 2 C4 3.32 4 4.64 4 6 C0.35471652 6.19937616 -3.29122228 6.38229958 -6.9375 6.5625 C-8.46987305 6.64661133 -8.46987305 6.64661133 -10.03320312 6.73242188 C-16.17004306 7.02651964 -21.91418417 6.85671026 -28 6 C-28 5.01 -28 4.02 -28 3 C-18.76 3 -9.52 3 0 3 C0 2.01 0 1.02 0 0 Z " fill="#BCBCBC" transform="translate(51,79)"/>
<path d="M0 0 C0.66 0 1.32 0 2 0 C2 2.97 2 5.94 2 9 C3.32 9 4.64 9 6 9 C6 9.99 6 10.98 6 12 C6.66 12.33 7.32 12.66 8 13 C7.67 14.32 7.34 15.64 7 17 C3.37 17 -0.26 17 -4 17 C-4 15.35 -4 13.7 -4 12 C-3.34 12 -2.68 12 -2 12 C-2 10.68 -2 9.36 -2 8 C-1.34 8 -0.68 8 0 8 C0 5.36 0 2.72 0 0 Z " fill="#101010" transform="translate(55,88)"/>
<path d="M0 0 C1.98 0 3.96 0 6 0 C6 0.66 6 1.32 6 2 C6.66 2 7.32 2 8 2 C8 2.66 8 3.32 8 4 C8.66 4 9.32 4 10 4 C10 5.98 10 7.96 10 10 C9.01 10 8.02 10 7 10 C7 10.66 7 11.32 7 12 C6.34 12 5.68 12 5 12 C5 11.34 5 10.68 5 10 C3.68 9.67 2.36 9.34 1 9 C1 8.01 1 7.02 1 6 C0.01 5.67 -0.98 5.34 -2 5 C-2 4.01 -2 3.02 -2 2 C-1.34 2 -0.68 2 0 2 C0 1.34 0 0.68 0 0 Z " fill="#B0B0B0" transform="translate(103,46)"/>
<path d="M0 0 C0.99 0 1.98 0 3 0 C3.33 1.32 3.66 2.64 4 4 C4.99 4 5.98 4 7 4 C7.33 5.32 7.66 6.64 8 8 C9.32 8.33 10.64 8.66 12 9 C12 9.99 12 10.98 12 12 C8.04 12 4.08 12 0 12 C0 8.04 0 4.08 0 0 Z " fill="#A4A4A4" transform="translate(69,15)"/>
<path d="M0 0 C0.99 0 1.98 0 3 0 C3 0.66 3 1.32 3 2 C3.99 2 4.98 2 6 2 C6.66 3.65 7.32 5.3 8 7 C8.99 7 9.98 7 11 7 C11 8.32 11 9.64 11 11 C8.36 11 5.72 11 3 11 C3 10.01 3 9.02 3 8 C2.01 8 1.02 8 0 8 C0 5.36 0 2.72 0 0 Z " fill="#D1D1D0" transform="translate(58,89)"/>
<path d="M0 0 C10.23 0 20.46 0 31 0 C31 0.33 31 0.66 31 1 C30.28972656 1.06058594 29.57945313 1.12117188 28.84765625 1.18359375 C27.92855469 1.26738281 27.00945313 1.35117187 26.0625 1.4375 C25.14597656 1.51871094 24.22945312 1.59992187 23.28515625 1.68359375 C21.03840268 1.76044976 21.03840268 1.76044976 20 3 C17.13732433 3.07325168 14.299281 3.09238205 11.4375 3.0625 C10.63119141 3.05798828 9.82488281 3.05347656 8.99414062 3.04882812 C6.99606244 3.03700518 4.99802217 3.01906914 3 3 C3 2.34 3 1.68 3 1 C2.01 0.67 1.02 0.34 0 0 Z " fill="#ACACAC" transform="translate(20,32)"/>
<path d="M0 0 C0.98484375 0.01804688 1.9696875 0.03609375 2.984375 0.0546875 C4.10585937 0.08949219 4.10585937 0.08949219 5.25 0.125 C5.58 1.775 5.91 3.425 6.25 5.125 C6.91 5.125 7.57 5.125 8.25 5.125 C8.25 6.445 8.25 7.765 8.25 9.125 C6.93 9.125 5.61 9.125 4.25 9.125 C4.25 8.465 4.25 7.805 4.25 7.125 C-2.68 7.125 -9.61 7.125 -16.75 7.125 C-16.75 6.795 -16.75 6.465 -16.75 6.125 C-9.49 6.125 -2.23 6.125 5.25 6.125 C5.25 4.805 5.25 3.485 5.25 2.125 C0.3 2.125 -4.65 2.125 -9.75 2.125 C-5.76219998 0.13109999 -4.27852428 -0.10186963 0 0 Z " fill="#9F9F9F" transform="translate(70.75,38.875)"/>
<path d="M0 0 C5.28 0 10.56 0 16 0 C16 1.32 16 2.64 16 4 C10.72 4 5.44 4 0 4 C0 2.68 0 1.36 0 0 Z " fill="#B5B5B5" transform="translate(69,31)"/>
<path d="M0 0 C-0.15180845 2.65664779 -0.52011425 4.45217862 -2.296875 6.48046875 C-3.875 7.875 -3.875 7.875 -7 10 C-7.99 9.67 -8.98 9.34 -10 9 C-9.35875684 3.22881158 -5.59674318 0 0 0 Z " fill="#B4B4B4" transform="translate(81,83)"/>
<path d="M0 0 C0.66 0 1.32 0 2 0 C2 0.66 2 1.32 2 2 C2.66 2.33 3.32 2.66 4 3 C3.07347299 4.17539996 2.13336613 5.34010577 1.1875 6.5 C0.66542969 7.1496875 0.14335938 7.799375 -0.39453125 8.46875 C-2 10 -2 10 -5 10 C-5.8125 8.3125 -5.8125 8.3125 -6 6 C-3.625 3.3125 -3.625 3.3125 -1 1 C-0.67 0.67 -0.34 0.34 0 0 Z " fill="#BBBBB9" transform="translate(95,54)"/>
<path d="M0 0 C0.66 0 1.32 0 2 0 C2 0.66 2 1.32 2 2 C4.475 2.99 4.475 2.99 7 4 C6.01 4.495 6.01 4.495 5 5 C4.34444881 7.52733235 4.34444881 7.52733235 4 10 C3.67 9.34 3.34 8.68 3 8 C2.01 8 1.02 8 0 8 C-1.09658936 4.71023192 -0.79953138 3.28696233 0 0 Z " fill="#2A2A2A" transform="translate(73,11)"/>
<path d="M0 0 C0.66 1.32 1.32 2.64 2 4 C0.71937515 5.7074998 -0.61767557 7.37373596 -2 9 C-2.66 9 -3.32 9 -4 9 C-4 8.34 -4 7.68 -4 7 C-4.66 7 -5.32 7 -6 7 C-6 6.34 -6 5.68 -6 5 C-4.04072937 3.2856382 -2.04119788 1.61594832 0 0 Z " fill="#B2B0B1" transform="translate(71,79)"/>
<path d="M0 0 C4.29 0 8.58 0 13 0 C8.5 3.375 8.5 3.375 4.25 3.1875 C3.45078125 3.16042969 2.6515625 3.13335937 1.828125 3.10546875 C1.22484375 3.07066406 0.6215625 3.03585938 0 3 C0 2.01 0 1.02 0 0 Z " fill="#B5B5B5" transform="translate(23,82)"/>
<path d="M0 0 C0.99 0 1.98 0 3 0 C3 0.66 3 1.32 3 2 C3.99 2.33 4.98 2.66 6 3 C5.34 3 4.68 3 4 3 C3.67 4.65 3.34 6.3 3 8 C2.01 8 1.02 8 0 8 C0 5.36 0 2.72 0 0 Z " fill="#C1C1C1" transform="translate(58,89)"/>
<path d="M0 0 C0.94875 0.04125 1.8975 0.0825 2.875 0.125 C2.545 0.785 2.215 1.445 1.875 2.125 C1.215 2.125 0.555 2.125 -0.125 2.125 C-0.785 3.445 -1.445 4.765 -2.125 6.125 C-3.775 6.125 -5.425 6.125 -7.125 6.125 C-4.34782609 0.17391304 -4.34782609 0.17391304 0 0 Z " fill="#C1C1C0" transform="translate(85.125,77.875)"/>
<path d="M0 0 C0.98120464 3.05263664 0.98120464 4.94736336 0 8 C-1.98 8 -3.96 8 -6 8 C-6 8.66 -6 9.32 -6 10 C-6.99 9.67 -7.98 9.34 -9 9 C-8.34 9 -7.68 9 -7 9 C-7 8.34 -7 7.68 -7 7 C-5.625 5.375 -5.625 5.375 -4 4 C-3.34 4 -2.68 4 -2 4 C-2 3.34 -2 2.68 -2 2 C-1.34 2 -0.68 2 0 2 C0 1.34 0 0.68 0 0 Z " fill="#AEAEAE" transform="translate(109,64)"/>
<path d="M0 0 C3.3 0 6.6 0 10 0 C9.34 0.66 8.68 1.32 8 2 C9.65 2.33 11.3 2.66 13 3 C13 3.33 13 3.66 13 4 C9.7 4 6.4 4 3 4 C3 3.01 3 2.02 3 1 C2.01 0.67 1.02 0.34 0 0 Z " fill="#C1C1C1" transform="translate(52,105)"/>
<path d="M0 0 C0.99 0.33 1.98 0.66 3 1 C3 1.66 3 2.32 3 3 C4.32 3.33 5.64 3.66 7 4 C7 4.66 7 5.32 7 6 C4.69 6 2.38 6 0 6 C0 4.02 0 2.04 0 0 Z " fill="#F1F1F1" transform="translate(74,20)"/>
<path d="M0 0 C0.99 0 1.98 0 3 0 C3 0.66 3 1.32 3 2 C3.99 2.33 4.98 2.66 6 3 C5.34 3 4.68 3 4 3 C4 3.66 4 4.32 4 5 C3.34 5 2.68 5 2 5 C1.67 5.66 1.34 6.32 1 7 C0.01 5.68 -0.98 4.36 -2 3 C-1.34 3 -0.68 3 0 3 C0 2.01 0 1.02 0 0 Z " fill="#A2A2A2" transform="translate(87,48)"/>
<path d="M0 0 C2.97 0 5.94 0 9 0 C9 0.33 9 0.66 9 1 C6.36 1 3.72 1 1 1 C1 1.66 1 2.32 1 3 C1.66 3 2.32 3 3 3 C3 3.66 3 4.32 3 5 C1.35 5 -0.3 5 -2 5 C-2.33 4.34 -2.66 3.68 -3 3 C-2.01 3 -1.02 3 0 3 C0 2.01 0 1.02 0 0 Z " fill="#A4A4A4" transform="translate(62,103)"/>
<path d="M0 0 C0.66 0.99 1.32 1.98 2 3 C0.68 4.32 -0.64 5.64 -2 7 C-2.99 6.34 -3.98 5.68 -5 5 C-4.34 5 -3.68 5 -3 5 C-2.67 4.01 -2.34 3.02 -2 2 C-1.34 2 -0.68 2 0 2 C0 1.34 0 0.68 0 0 Z " fill="#A7A7A7" transform="translate(76,86)"/>
<path d="M0 0 C0.33 1.32 0.66 2.64 1 4 C1.66 4 2.32 4 3 4 C3 5.32 3 6.64 3 8 C1.68 8 0.36 8 -1 8 C-0.67 5.36 -0.34 2.72 0 0 Z " fill="#BEBEBE" transform="translate(51,27)"/>
<path d="M0 0 C0.66 0 1.32 0 2 0 C2 1.32 2 2.64 2 4 C1.01 4 0.02 4 -1 4 C-1.33 4.66 -1.66 5.32 -2 6 C-2 2 -2 2 0 0 Z " fill="#B5B5B3" transform="translate(102,60)"/>
</svg>
