<?xml version="1.0" encoding="UTF-8"?>
<svg version="1.1" xmlns="http://www.w3.org/2000/svg" width="128" height="128">
<path d="M0 0 C10.23 0 20.46 0 31 0 C31 0.99 31 1.98 31 3 C33.97 3 36.94 3 40 3 C40 3.99 40 4.98 40 6 C41.98 6 43.96 6 46 6 C46 6.99 46 7.98 46 9 C46.804375 9.268125 47.60875 9.53625 48.4375 9.8125 C49.283125 10.204375 50.12875 10.59625 51 11 C51.495 12.485 51.495 12.485 52 14 C52.66 14 53.32 14 54 14 C54 14.66 54 15.32 54 16 C54.66 16 55.32 16 56 16 C56 16.99 56 17.98 56 19 C57.32 19 58.64 19 60 19 C60 18.01 60 17.02 60 16 C61.32 16 62.64 16 64 16 C64 14.68 64 13.36 64 12 C65.65 12 67.3 12 69 12 C69 13.65 69 15.3 69 17 C70.32 17 71.64 17 73 17 C73 28.22 73 39.44 73 51 C70.69 51 68.38 51 66 51 C65.67 50.01 65.34 49.02 65 48 C63.783125 47.896875 62.56625 47.79375 61.3125 47.6875 C57.59852427 47.22572682 55.00373615 46.34666887 52 44 C52 43.34 52 42.68 52 42 C50.02 42 48.04 42 46 42 C46 41.34 46 40.68 46 40 C44.35 39.67 42.7 39.34 41 39 C41 38.01 41 37.02 41 36 C39.68 36 38.36 36 37 36 C37 34.35 37 32.7 37 31 C38.65 30.67 40.3 30.34 42 30 C42 29.01 42 28.02 42 27 C43.98 27 45.96 27 48 27 C47.505 25.02 47.505 25.02 47 23 C46.29875 22.87625 45.5975 22.7525 44.875 22.625 C41.82343613 21.96161655 38.94659062 21.02788045 36 20 C36 19.34 36 18.68 36 18 C34.35 17.67 32.7 17.34 31 17 C31 16.34 31 15.68 31 15 C27.64521419 15.11090946 24.29144824 15.24128778 20.9375 15.375 C19.52307617 15.42140625 19.52307617 15.42140625 18.08007812 15.46875 C12.72433421 15.69268354 8.07901759 16.26707583 3 18 C3 18.66 3 19.32 3 20 C-0.96 20.495 -0.96 20.495 -5 21 C-5 21.99 -5 22.98 -5 24 C-5.969375 24.433125 -6.93875 24.86625 -7.9375 25.3125 C-11.27731765 26.7014861 -11.27731765 26.7014861 -12 30 C-12.66 30 -13.32 30 -14 30 C-14 30.66 -14 31.32 -14 32 C-14.99 32 -15.98 32 -17 32 C-17.33 33.98 -17.66 35.96 -18 38 C-18.99 38 -19.98 38 -21 38 C-21 39.98 -21 41.96 -21 44 C-21.66 44 -22.32 44 -23 44 C-23 48.29 -23 52.58 -23 57 C-26.3 57 -29.6 57 -33 57 C-33 55.35 -33 53.7 -33 52 C-34.65 52 -36.3 52 -38 52 C-38 47.05 -38 42.1 -38 37 C-37.01 37 -36.02 37 -35 37 C-35 34.69 -35 32.38 -35 30 C-34.01 30 -33.02 30 -32 30 C-32 28.02 -32 26.04 -32 24 C-31.01 24 -30.02 24 -29 24 C-29 23.01 -29 22.02 -29 21 C-28.34 21 -27.68 21 -27 21 C-26.34 19.35 -25.68 17.7 -25 16 C-24.01 16 -23.02 16 -22 16 C-22 15.01 -22 14.02 -22 13 C-21.01 13 -20.02 13 -19 13 C-19 12.34 -19 11.68 -19 11 C-18.01 11 -17.02 11 -16 11 C-16 10.34 -16 9.68 -16 9 C-15.01 9 -14.02 9 -13 9 C-13 8.01 -13 7.02 -13 6 C-11.35 6 -9.7 6 -8 6 C-8 5.01 -8 4.02 -8 3 C-5.36 3 -2.72 3 0 3 C0 2.01 0 1.02 0 0 Z " fill="#0F0F0F" transform="translate(46,10)"/>
<path d="M0 0 C3.63 0 7.26 0 11 0 C11 1.32 11 2.64 11 4 C11.99 4 12.98 4 14 4 C14.19573608 5.43640171 14.38127816 6.87419504 14.5625 8.3125 C14.71912109 9.51326172 14.71912109 9.51326172 14.87890625 10.73828125 C15 13 15 13 14 16 C13.34 16 12.68 16 12 16 C12 18.64 12 21.28 12 24 C11.01 24 10.02 24 9 24 C9 26.31 9 28.62 9 31 C8.34 31 7.68 31 7 31 C6.67 32.65 6.34 34.3 6 36 C5.01 36 4.02 36 3 36 C3 36.66 3 37.32 3 38 C2.34 38 1.68 38 1 38 C0.9175 38.61875 0.835 39.2375 0.75 39.875 C0 42 0 42 -1.9375 43.0625 C-2.9584375 43.5265625 -2.9584375 43.5265625 -4 44 C-4.66 44.99 -5.32 45.98 -6 47 C-6.99 47 -7.98 47 -9 47 C-9 47.66 -9 48.32 -9 49 C-9.8971875 49.1546875 -9.8971875 49.1546875 -10.8125 49.3125 C-13.06579909 49.80398414 -13.06579909 49.80398414 -14.25 51.5 C-17.11402515 53.9548787 -20.30324285 53.69698712 -24 54 C-24.33 54.99 -24.66 55.98 -25 57 C-28.93260944 57.07421454 -32.86494722 57.12863136 -36.7980957 57.16479492 C-38.79327701 57.18728333 -40.78826213 57.22540198 -42.78320312 57.26367188 C-44.03681641 57.27333984 -45.29042969 57.28300781 -46.58203125 57.29296875 C-47.73936768 57.3086792 -48.8967041 57.32438965 -50.08911133 57.34057617 C-53.37714046 56.95587428 -53.90968474 56.39743228 -56 54 C-59.61023099 53.26958147 -59.61023099 53.26958147 -63 53 C-63 52.34 -63 51.68 -63 51 C-63.928125 51.061875 -64.85625 51.12375 -65.8125 51.1875 C-69 51 -69 51 -70.625 49.625 C-71.07875 49.08875 -71.5325 48.5525 -72 48 C-74.09989652 46.82425289 -74.09989652 46.82425289 -76 46 C-76 44.68 -76 43.36 -76 42 C-76.99 42 -77.98 42 -79 42 C-79 41.01 -79 40.02 -79 39 C-81.97 39.495 -81.97 39.495 -85 40 C-85 40.66 -85 41.32 -85 42 C-85.99 42 -86.98 42 -88 42 C-88 42.99 -88 43.98 -88 45 C-89.65 44.67 -91.3 44.34 -93 44 C-93 43.34 -93 42.68 -93 42 C-94.32 41.67 -95.64 41.34 -97 41 C-97 29.78 -97 18.56 -97 7 C-89.125 7 -89.125 7 -85 8 C-85 8.99 -85 9.98 -85 11 C-81.7 11.33 -78.4 11.66 -75 12 C-75 12.99 -75 13.98 -75 15 C-73.35 15 -71.7 15 -70 15 C-70 15.66 -70 16.32 -70 17 C-68.68 17 -67.36 17 -66 17 C-66 18.65 -66 20.3 -66 22 C-64.68 22 -63.36 22 -62 22 C-62 23.65 -62 25.3 -62 27 C-64.97 27.495 -64.97 27.495 -68 28 C-68 28.66 -68 29.32 -68 30 C-69.32 30 -70.64 30 -72 30 C-72 30.66 -72 31.32 -72 32 C-70.35 32.66 -68.7 33.32 -67 34 C-67 34.99 -67 35.98 -67 37 C-65.35 37 -63.7 37 -62 37 C-62 37.99 -62 38.98 -62 40 C-59.36 40 -56.72 40 -54 40 C-54 40.99 -54 41.98 -54 43 C-47.4 43 -40.8 43 -34 43 C-34 42.01 -34 41.02 -34 40 C-31.36 40 -28.72 40 -26 40 C-26 39.01 -26 38.02 -26 37 C-24.02 37 -22.04 37 -20 37 C-19.67 35.68 -19.34 34.36 -19 33 C-18.38125 32.9175 -17.7625 32.835 -17.125 32.75 C-14.81562433 32.18741541 -14.81562433 32.18741541 -13.75 29.9375 C-13.37875 28.9784375 -13.37875 28.9784375 -13 28 C-12.01 28 -11.02 28 -10 28 C-10 27.34 -10 26.68 -10 26 C-9.34 26 -8.68 26 -8 26 C-8 24.68 -8 23.36 -8 22 C-7.34 22 -6.68 22 -6 22 C-5.67 20.35 -5.34 18.7 -5 17 C-4.34 17 -3.68 17 -3 17 C-3 15.35 -3 13.7 -3 12 C-2.01 12 -1.02 12 0 12 C0 8.04 0 4.08 0 0 Z " fill="#141414" transform="translate(106,67)"/>
<path d="M0 0 C3.63 0 7.26 0 11 0 C11 1.32 11 2.64 11 4 C11.99 4 12.98 4 14 4 C14.19573608 5.43640171 14.38127816 6.87419504 14.5625 8.3125 C14.71912109 9.51326172 14.71912109 9.51326172 14.87890625 10.73828125 C15 13 15 13 14 16 C13.34 16 12.68 16 12 16 C12 18.64 12 21.28 12 24 C11.01 24 10.02 24 9 24 C9 26.31 9 28.62 9 31 C8.34 31 7.68 31 7 31 C6.67 32.65 6.34 34.3 6 36 C5.01 36 4.02 36 3 36 C3 36.66 3 37.32 3 38 C2.34 38 1.68 38 1 38 C0.9175 38.61875 0.835 39.2375 0.75 39.875 C0 42 0 42 -1.9375 43.0625 C-2.9584375 43.5265625 -2.9584375 43.5265625 -4 44 C-4.66 44.99 -5.32 45.98 -6 47 C-6.99 47 -7.98 47 -9 47 C-9 47.66 -9 48.32 -9 49 C-9.8971875 49.1546875 -9.8971875 49.1546875 -10.8125 49.3125 C-13.06579909 49.80398414 -13.06579909 49.80398414 -14.25 51.5 C-17.11402515 53.9548787 -20.30324285 53.69698712 -24 54 C-24.33 54.99 -24.66 55.98 -25 57 C-28.93260944 57.07421454 -32.86494722 57.12863136 -36.7980957 57.16479492 C-38.79327701 57.18728333 -40.78826213 57.22540198 -42.78320312 57.26367188 C-44.03681641 57.27333984 -45.29042969 57.28300781 -46.58203125 57.29296875 C-47.73936768 57.3086792 -48.8967041 57.32438965 -50.08911133 57.34057617 C-53.37714046 56.95587428 -53.90968474 56.39743228 -56 54 C-59.61023099 53.26958147 -59.61023099 53.26958147 -63 53 C-63 52.34 -63 51.68 -63 51 C-63.928125 51.061875 -64.85625 51.12375 -65.8125 51.1875 C-69 51 -69 51 -70.625 49.625 C-71.07875 49.08875 -71.5325 48.5525 -72 48 C-74.09989652 46.82425289 -74.09989652 46.82425289 -76 46 C-76 44.68 -76 43.36 -76 42 C-76.99 42 -77.98 42 -79 42 C-78.67 41.01 -78.34 40.02 -78 39 C-78 39.66 -78 40.32 -78 41 C-77.01 41 -76.02 41 -75 41 C-75 41.99 -75 42.98 -75 44 C-74.01 44 -73.02 44 -72 44 C-72 44.66 -72 45.32 -72 46 C-70.35 46 -68.7 46 -67 46 C-67 46.99 -67 47.98 -67 49 C-64.03 49 -61.06 49 -58 49 C-58 49.66 -58 50.32 -58 51 C-48.43 51 -38.86 51 -29 51 C-29 50.34 -29 49.68 -29 49 C-26.03 49 -23.06 49 -20 49 C-20 48.01 -20 47.02 -20 46 C-18.35 46 -16.7 46 -15 46 C-15 45.01 -15 44.02 -15 43 C-14.01 43 -13.02 43 -12 43 C-12 42.01 -12 41.02 -12 40 C-11.01 40 -10.02 40 -9 40 C-9 39.34 -9 38.68 -9 38 C-8.01 38 -7.02 38 -6 38 C-6 37.01 -6 36.02 -6 35 C-5.01 35 -4.02 35 -3 35 C-3 34.01 -3 33.02 -3 32 C-2.34 32 -1.68 32 -1 32 C-1 31.34 -1 30.68 -1 30 C-0.01 30 0.98 30 2 30 C2 28.68 2 27.36 2 26 C2.99 26 3.98 26 5 26 C5 23.69 5 21.38 5 19 C5.99 19 6.98 19 8 19 C8 16.69 8 14.38 8 12 C8.66 12 9.32 12 10 12 C10 8.37 10 4.74 10 1 C6.7 1 3.4 1 0 1 C0 0.67 0 0.34 0 0 Z " fill="#BBBBBB" transform="translate(106,67)"/>
<path d="M0 0 C7.92 0 15.84 0 24 0 C24 1.32 24 2.64 24 4 C25.98 4 27.96 4 30 4 C30 4.66 30 5.32 30 6 C31.65 6 33.3 6 35 6 C35 6.66 35 7.32 35 8 C35.99 8 36.98 8 38 8 C38 8.99 38 9.98 38 11 C38.99 11 39.98 11 41 11 C41 11.66 41 12.32 41 13 C41.99 13 42.98 13 44 13 C44.495 15.475 44.495 15.475 45 18 C44.773125 17.360625 44.54625 16.72125 44.3125 16.0625 C43.18363423 13.78069951 43.18363423 13.78069951 40.75 13.375 C39.8425 13.25125 38.935 13.1275 38 13 C35.99255385 12.35610218 33.99054876 11.69437747 32 11 C32 10.34 32 9.68 32 9 C30.35 8.67 28.7 8.34 27 8 C27 7.34 27 6.68 27 6 C23.64521419 6.11090946 20.29144824 6.24128778 16.9375 6.375 C15.52307617 6.42140625 15.52307617 6.42140625 14.08007812 6.46875 C8.72433421 6.69268354 4.07901759 7.26707583 -1 9 C-1 9.66 -1 10.32 -1 11 C-3.64 11.33 -6.28 11.66 -9 12 C-9 12.99 -9 13.98 -9 15 C-9.969375 15.433125 -10.93875 15.86625 -11.9375 16.3125 C-15.27731765 17.7014861 -15.27731765 17.7014861 -16 21 C-16.66 21 -17.32 21 -18 21 C-18 21.66 -18 22.32 -18 23 C-18.99 23 -19.98 23 -21 23 C-21.33 24.98 -21.66 26.96 -22 29 C-22.99 29 -23.98 29 -25 29 C-25 30.98 -25 32.96 -25 35 C-25.66 35 -26.32 35 -27 35 C-27 39.29 -27 43.58 -27 48 C-30.3 48 -33.6 48 -37 48 C-37 46.35 -37 44.7 -37 43 C-38.65 43 -40.3 43 -42 43 C-42 38.05 -42 33.1 -42 28 C-41.01 28 -40.02 28 -39 28 C-39 28.66 -39 29.32 -39 30 C-39.66 30 -40.32 30 -41 30 C-41 33.96 -41 37.92 -41 42 C-38.03 42 -35.06 42 -32 42 C-32 38.37 -32 34.74 -32 31 C-31.01 31 -30.02 31 -29 31 C-29 29.35 -29 27.7 -29 26 C-28.34 26 -27.68 26 -27 26 C-27 24.68 -27 23.36 -27 22 C-26.34 22 -25.68 22 -25 22 C-25 20.68 -25 19.36 -25 18 C-24.01 18 -23.02 18 -22 18 C-22 17.34 -22 16.68 -22 16 C-21.34 16 -20.68 16 -20 16 C-20 15.01 -20 14.02 -20 13 C-19.34 13 -18.68 13 -18 13 C-18 12.34 -18 11.68 -18 11 C-17.01 11 -16.02 11 -15 11 C-15 10.01 -15 9.02 -15 8 C-14.01 8 -13.02 8 -12 8 C-12 7.34 -12 6.68 -12 6 C-10.35 6 -8.7 6 -7 6 C-7 5.01 -7 4.02 -7 3 C-4.69 3 -2.38 3 0 3 C0 2.01 0 1.02 0 0 Z " fill="#B8B8B8" transform="translate(50,19)"/>
<path d="M0 0 C1.32 0.66 2.64 1.32 4 2 C4 2.66 4 3.32 4 4 C4.66 4 5.32 4 6 4 C6 4.66 6 5.32 6 6 C6.66 6 7.32 6 8 6 C8 6.99 8 7.98 8 9 C9.32 9 10.64 9 12 9 C12 8.01 12 7.02 12 6 C13.32 6 14.64 6 16 6 C16 4.68 16 3.36 16 2 C17.65 2 19.3 2 21 2 C21 3.65 21 5.3 21 7 C22.32 7 23.64 7 25 7 C25 18.22 25 29.44 25 41 C22.69 41 20.38 41 18 41 C17.67 40.01 17.34 39.02 17 38 C15.783125 37.896875 14.56625 37.79375 13.3125 37.6875 C9.59852427 37.22572682 7.00373615 36.34666887 4 34 C4 33.34 4 32.68 4 32 C2.02 32 0.04 32 -2 32 C-2 31.34 -2 30.68 -2 30 C-3.65 29.67 -5.3 29.34 -7 29 C-7 28.01 -7 27.02 -7 26 C-8.32 26 -9.64 26 -11 26 C-11 24.35 -11 22.7 -11 21 C-9.35 20.67 -7.7 20.34 -6 20 C-6 19.01 -6 18.02 -6 17 C-4.35 17 -2.7 17 -1 17 C-1 17.66 -1 18.32 -1 19 C-1.99 19 -2.98 19 -4 19 C-4 19.66 -4 20.32 -4 21 C-5.65 21 -7.3 21 -9 21 C-9 22.32 -9 23.64 -9 25 C-8.4225 25.144375 -7.845 25.28875 -7.25 25.4375 C-5.16666667 25.95833333 -3.08333333 26.47916667 -1 27 C-1 27.66 -1 28.32 -1 29 C0.65 29 2.3 29 4 29 C4 29.66 4 30.32 4 31 C5.65 31 7.3 31 9 31 C9 31.66 9 32.32 9 33 C10.98 33 12.96 33 15 33 C15 33.66 15 34.32 15 35 C16.65 35 18.3 35 20 35 C20 24.44 20 13.88 20 3 C19.01 3.495 19.01 3.495 18 4 C17.67 4.99 17.34 5.98 17 7 C15.68 7 14.36 7 13 7 C13 7.99 13 8.98 13 10 C11.02 10 9.04 10 7 10 C7 9.34 7 8.68 7 8 C6.01 7.67 5.02 7.34 4 7 C4 6.34 4 5.68 4 5 C3.34 5 2.68 5 2 5 C2 4.34 2 3.68 2 3 C1.34 3 0.68 3 0 3 C0 2.01 0 1.02 0 0 Z " fill="#BBBBBB" transform="translate(94,20)"/>
<path d="M0 0 C7.26 0 14.52 0 22 0 C22.495 0.99 22.495 0.99 23 2 C26.02934491 2.65772428 26.02934491 2.65772428 29 3 C29 3.66 29 4.32 29 5 C30.65 5 32.3 5 34 5 C34 5.66 34 6.32 34 7 C34.99 7 35.98 7 37 7 C37 7.99 37 8.98 37 10 C37.99 10 38.98 10 40 10 C40 10.66 40 11.32 40 12 C40.99 12 41.98 12 43 12 C43.495 14.475 43.495 14.475 44 17 C43.773125 16.360625 43.54625 15.72125 43.3125 15.0625 C42.18363423 12.78069951 42.18363423 12.78069951 39.75 12.375 C38.8425 12.25125 37.935 12.1275 37 12 C34.99255385 11.35610218 32.99054876 10.69437747 31 10 C31 9.34 31 8.68 31 8 C28.525 7.505 28.525 7.505 26 7 C26 6.34 26 5.68 26 5 C22.64521419 5.11090946 19.29144824 5.24128778 15.9375 5.375 C14.52307617 5.42140625 14.52307617 5.42140625 13.08007812 5.46875 C7.72433421 5.69268354 3.07901759 6.26707583 -2 8 C-2 8.66 -2 9.32 -2 10 C-4.64 10.33 -7.28 10.66 -10 11 C-10 11.99 -10 12.98 -10 14 C-10.99 14.33 -11.98 14.66 -13 15 C-13 14.01 -13 13.02 -13 12 C-12.34 12 -11.68 12 -11 12 C-11 11.34 -11 10.68 -11 10 C-8.69 9.34 -6.38 8.68 -4 8 C-4 6.68 -4 5.36 -4 4 C-4.99 3.67 -5.98 3.34 -7 3 C-4.69 3 -2.38 3 0 3 C0 2.01 0 1.02 0 0 Z " fill="#C4C4C4" transform="translate(51,20)"/>
<path d="M0 0 C0.33 0.66 0.66 1.32 1 2 C1.99 2 2.98 2 4 2 C4 2.99 4 3.98 4 5 C4.99 5 5.98 5 7 5 C7 5.66 7 6.32 7 7 C8.65 7 10.3 7 12 7 C12 7.99 12 8.98 12 10 C14.97 10 17.94 10 21 10 C21 10.66 21 11.32 21 12 C30.57 12 40.14 12 50 12 C50 11.34 50 10.68 50 10 C50.99 10.33 51.98 10.66 53 11 C52.01 12.98 51.02 14.96 50 17 C41.42 17 32.84 17 24 17 C23.67 16.34 23.34 15.68 23 15 C20.67843403 14.59270772 18.3431213 14.25561323 16 14 C16 13.34 16 12.68 16 12 C15.071875 12.061875 14.14375 12.12375 13.1875 12.1875 C10 12 10 12 8.375 10.625 C7.92125 10.08875 7.4675 9.5525 7 9 C4.90010348 7.82425289 4.90010348 7.82425289 3 7 C3 5.68 3 4.36 3 3 C2.01 3 1.02 3 0 3 C0 2.01 0 1.02 0 0 Z " fill="#ACACAC" transform="translate(27,106)"/>
<path d="M0 0 C7.92 0 15.84 0 24 0 C23.67 0.99 23.34 1.98 23 3 C23 2.34 23 1.68 23 1 C15.74 1 8.48 1 1 1 C1 1.99 1 2.98 1 4 C-0.32 4.33 -1.64 4.66 -3 5 C-3 6.32 -3 7.64 -3 9 C-6 11 -6 11 -10 11 C-10 11.66 -10 12.32 -10 13 C-10.66 13 -11.32 13 -12 13 C-12 14.32 -12 15.64 -12 17 C-13.875 16.8125 -13.875 16.8125 -16 16 C-17.25 13.4375 -17.25 13.4375 -18 11 C-17.01 11 -16.02 11 -15 11 C-15 10.01 -15 9.02 -15 8 C-14.01 8 -13.02 8 -12 8 C-12 7.34 -12 6.68 -12 6 C-10.35 6 -8.7 6 -7 6 C-7 5.01 -7 4.02 -7 3 C-4.69 3 -2.38 3 0 3 C0 2.01 0 1.02 0 0 Z " fill="#9C9C9C" transform="translate(50,19)"/>
<path d="M0 0 C0.12375 0.639375 0.2475 1.27875 0.375 1.9375 C0.58125 2.618125 0.7875 3.29875 1 4 C1.66 4.33 2.32 4.66 3 5 C2.34 6.32 1.68 7.64 1 9 C0.34 9 -0.32 9 -1 9 C-1 9.66 -1 10.32 -1 11 C-1.99 11 -2.98 11 -4 11 C-4.33 12.98 -4.66 14.96 -5 17 C-6.65 16.67 -8.3 16.34 -10 16 C-10 14.02 -10 12.04 -10 10 C-9.34 10 -8.68 10 -8 10 C-8 8.68 -8 7.36 -8 6 C-7.01 6 -6.02 6 -5 6 C-5 5.34 -5 4.68 -5 4 C-4.34 4 -3.68 4 -3 4 C-3 3.01 -3 2.02 -3 1 C-2.01 0.67 -1.02 0.34 0 0 Z " fill="#C1C2C2" transform="translate(33,31)"/>
<path d="M0 0 C1.98 0.99 1.98 0.99 4 2 C4 2.66 4 3.32 4 4 C4.66 4 5.32 4 6 4 C6 4.66 6 5.32 6 6 C6.66 6 7.32 6 8 6 C8 6.99 8 7.98 8 9 C9.32 9 10.64 9 12 9 C12 8.01 12 7.02 12 6 C13.32 6 14.64 6 16 6 C16 4.68 16 3.36 16 2 C17.65 2 19.3 2 21 2 C21 13.22 21 24.44 21 36 C18.69 36 16.38 36 14 36 C14 35.34 14 34.68 14 34 C12.35 34 10.7 34 9 34 C9 33.67 9 33.34 9 33 C10.98 33 12.96 33 15 33 C15 33.66 15 34.32 15 35 C16.65 35 18.3 35 20 35 C20 24.44 20 13.88 20 3 C19.01 3.495 19.01 3.495 18 4 C17.67 4.99 17.34 5.98 17 7 C15.68 7 14.36 7 13 7 C13 7.99 13 8.98 13 10 C11.02 10 9.04 10 7 10 C7 9.34 7 8.68 7 8 C6.01 7.67 5.02 7.34 4 7 C4 6.34 4 5.68 4 5 C3.34 5 2.68 5 2 5 C2 4.34 2 3.68 2 3 C1.34 3 0.68 3 0 3 C0 2.01 0 1.02 0 0 Z " fill="#595959" transform="translate(94,20)"/>
<path d="M0 0 C1.32 0 2.64 0 4 0 C4 0.99 4 1.98 4 3 C4.66 3 5.32 3 6 3 C6.33 4.32 6.66 5.64 7 7 C5.68 7.33 4.36 7.66 3 8 C3 8.66 3 9.32 3 10 C2.01 10 1.02 10 0 10 C0 10.99 0 11.98 0 13 C-1.65 12.67 -3.3 12.34 -5 12 C-5 11.34 -5 10.68 -5 10 C-6.32 9.34 -7.64 8.68 -9 8 C-7.35 8 -5.7 8 -4 8 C-4 7.01 -4 6.02 -4 5 C-2.68 5 -1.36 5 0 5 C0 3.35 0 1.7 0 0 Z " fill="#B8B8B8" transform="translate(18,99)"/>
<path d="M0 0 C2.64 0 5.28 0 8 0 C8 1.65 8 3.3 8 5 C6.02 5.33 4.04 5.66 2 6 C2 6.66 2 7.32 2 8 C-4.75 8.125 -4.75 8.125 -7 7 C-7 5.68 -7 4.36 -7 3 C-3.535 2.505 -3.535 2.505 0 2 C0 1.34 0 0.68 0 0 Z " fill="#BFBFBF" transform="translate(36,89)"/>
<path d="M0 0 C1.65 0 3.3 0 5 0 C5 0.66 5 1.32 5 2 C4.01 2 3.02 2 2 2 C2 2.66 2 3.32 2 4 C0.35 4 -1.3 4 -3 4 C-3 5.32 -3 6.64 -3 8 C-2.4225 8.144375 -1.845 8.28875 -1.25 8.4375 C0.83333333 8.95833333 2.91666667 9.47916667 5 10 C5 10.66 5 11.32 5 12 C6.65 12 8.3 12 10 12 C10 12.66 10 13.32 10 14 C11.65 14 13.3 14 15 14 C15 14.99 15 15.98 15 17 C13.35 17 11.7 17 10 17 C10 16.34 10 15.68 10 15 C8.02 15 6.04 15 4 15 C4 14.34 4 13.68 4 13 C2.35 12.67 0.7 12.34 -1 12 C-1 11.01 -1 10.02 -1 9 C-2.32 9 -3.64 9 -5 9 C-5 7.35 -5 5.7 -5 4 C-3.35 3.67 -1.7 3.34 0 3 C0 2.01 0 1.02 0 0 Z " fill="#B7B7B7" transform="translate(88,37)"/>
<path d="M0 0 C1.98 0 3.96 0 6 0 C6 0.66 6 1.32 6 2 C7.65 2 9.3 2 11 2 C11 2.66 11 3.32 11 4 C11.99 4 12.98 4 14 4 C14 4.99 14 5.98 14 7 C14.99 7 15.98 7 17 7 C17 7.66 17 8.32 17 9 C17.99 9 18.98 9 20 9 C20.33 10.65 20.66 12.3 21 14 C20.773125 13.360625 20.54625 12.72125 20.3125 12.0625 C19.18363423 9.78069951 19.18363423 9.78069951 16.75 9.375 C15.8425 9.25125 14.935 9.1275 14 9 C11.99255385 8.35610218 9.99054876 7.69437747 8 7 C8 6.34 8 5.68 8 5 C6.35 4.67 4.7 4.34 3 4 C3 3.34 3 2.68 3 2 C2.01 2 1.02 2 0 2 C0 1.34 0 0.68 0 0 Z " fill="#C0C0C0" transform="translate(74,23)"/>
<path d="M0 0 C0.33 0.66 0.66 1.32 1 2 C1.99 2 2.98 2 4 2 C4 2.99 4 3.98 4 5 C4.99 5 5.98 5 7 5 C7 5.66 7 6.32 7 7 C8.65 7 10.3 7 12 7 C12 7.99 12 8.98 12 10 C13.65 10 15.3 10 17 10 C16.67 11.32 16.34 12.64 16 14 C16 13.34 16 12.68 16 12 C15.071875 12.061875 14.14375 12.12375 13.1875 12.1875 C10 12 10 12 8.375 10.625 C7.92125 10.08875 7.4675 9.5525 7 9 C4.90010348 7.82425289 4.90010348 7.82425289 3 7 C3 5.68 3 4.36 3 3 C2.01 3 1.02 3 0 3 C0 2.01 0 1.02 0 0 Z " fill="#C4C4C4" transform="translate(27,106)"/>
<path d="M0 0 C1.98 0.99 1.98 0.99 4 2 C4 2.66 4 3.32 4 4 C4.66 4 5.32 4 6 4 C6 4.66 6 5.32 6 6 C6.66 6 7.32 6 8 6 C8 6.99 8 7.98 8 9 C9.32 9 10.64 9 12 9 C12 8.01 12 7.02 12 6 C13.32 6 14.64 6 16 6 C16.33 4.68 16.66 3.36 17 2 C17 3.65 17 5.3 17 7 C15.68 7 14.36 7 13 7 C13 7.99 13 8.98 13 10 C11.02 10 9.04 10 7 10 C7 9.34 7 8.68 7 8 C6.01 7.67 5.02 7.34 4 7 C4 6.34 4 5.68 4 5 C3.34 5 2.68 5 2 5 C2 4.34 2 3.68 2 3 C1.34 3 0.68 3 0 3 C0 2.01 0 1.02 0 0 Z " fill="#818181" transform="translate(94,20)"/>
<path d="M0 0 C2.97 0 5.94 0 9 0 C9 0.99 9 1.98 9 3 C10.98 3 12.96 3 15 3 C15 3.99 15 4.98 15 6 C15.66 6.33 16.32 6.66 17 7 C15.68 7 14.36 7 13 7 C13 6.34 13 5.68 13 5 C11.35 5 9.7 5 8 5 C7.67 4.01 7.34 3.02 7 2 C4.69 2 2.38 2 0 2 C0 1.34 0 0.68 0 0 Z " fill="#777777" transform="translate(77,13)"/>
<path d="M0 0 C1.65 0 3.3 0 5 0 C5 0.66 5 1.32 5 2 C4.01 2 3.02 2 2 2 C2 2.66 2 3.32 2 4 C0.35 4 -1.3 4 -3 4 C-3 5.32 -3 6.64 -3 8 C-2.01 8.33 -1.02 8.66 0 9 C-1.65 9 -3.3 9 -5 9 C-5 7.35 -5 5.7 -5 4 C-3.35 3.67 -1.7 3.34 0 3 C0 2.01 0 1.02 0 0 Z " fill="#A3A3A3" transform="translate(88,37)"/>
<path d="M0 0 C1.98 0 3.96 0 6 0 C6 0.66 6 1.32 6 2 C7.65 2 9.3 2 11 2 C11 2.66 11 3.32 11 4 C8.36 4 5.72 4 3 4 C3 3.34 3 2.68 3 2 C2.01 2 1.02 2 0 2 C0 1.34 0 0.68 0 0 Z " fill="#BABABA" transform="translate(74,23)"/>
<path d="M0 0 C1.32 0 2.64 0 4 0 C4 0.66 4 1.32 4 2 C3.34 2 2.68 2 2 2 C1.67 3.65 1.34 5.3 1 7 C0.01 7 -0.98 7 -2 7 C-2.33 7.66 -2.66 8.32 -3 9 C-3 7.68 -3 6.36 -3 5 C-2.01 5 -1.02 5 0 5 C0 3.35 0 1.7 0 0 Z " fill="#D5D5D5" transform="translate(111,96)"/>
<path d="M0 0 C2.97 0.495 2.97 0.495 6 1 C6 2.65 6 4.3 6 6 C5.67 5.34 5.34 4.68 5 4 C2.47266765 3.34444881 2.47266765 3.34444881 0 3 C0 2.01 0 1.02 0 0 Z " fill="#C7C7C7" transform="translate(87,46)"/>
<path d="M0 0 C0.99 0.33 1.98 0.66 3 1 C2.01 2.485 2.01 2.485 1 4 C0.01 4 -0.98 4 -2 4 C-2 4.66 -2 5.32 -2 6 C-3.32 5.67 -4.64 5.34 -6 5 C-5.34 5 -4.68 5 -4 5 C-4 4.34 -4 3.68 -4 3 C-2.68 2.67 -1.36 2.34 0 2 C0 1.34 0 0.68 0 0 Z " fill="#CCCCCC" transform="translate(99,110)"/>
<path d="M0 0 C2.64 0 5.28 0 8 0 C8 0.99 8 1.98 8 3 C3.44615385 3.36923077 3.44615385 3.36923077 1.1875 1.5 C0.5996875 0.7575 0.5996875 0.7575 0 0 Z " fill="#D6D6D6" transform="translate(100,54)"/>
</svg>
